<svg width="197" height="40" viewBox="0 0 197 40" fill="none" xmlns="http://www.w3.org/2000/svg">
<path d="M10.9301 14.0688L11.1878 12.8C12.607 5.81179 18.8628 0.528442 26.4773 0.528442C32.159 0.528442 37.1027 3.50421 39.8296 7.92736C37.6046 8.12692 35.5169 8.80277 33.669 9.85218C31.9078 7.79563 29.2939 6.57829 26.4773 6.57829C22.0129 6.57829 18.1412 9.67549 17.272 13.9729L16.1658 19.4704H10.6742C8.50131 19.4704 6.72347 21.2126 6.72347 23.3419C6.72347 25.4713 8.50131 27.2134 10.6742 27.2134H26.4536C27.0748 29.4843 28.2059 31.5446 29.7164 33.2633H10.3582C4.90006 33.2633 0.515137 28.9175 0.515137 23.6517C0.515137 18.6249 4.51977 14.4848 9.63816 14.1526L10.9301 14.0688Z" fill="#3400CA"/>
<path fill-rule="evenodd" clip-rule="evenodd" d="M41.2142 10.1232C34.0103 10.1232 28.1704 15.9631 28.1704 23.1669C28.1704 30.3708 34.0103 36.2107 41.2142 36.2107C43.6332 36.2107 45.8984 35.5522 47.8403 34.4047L51.9521 38.5165C53.2256 39.79 55.2903 39.79 56.5638 38.5165C57.8373 37.2431 57.8373 35.1784 56.5638 33.9049L52.452 29.7931C53.5995 27.8511 54.258 25.5859 54.258 23.1669C54.258 15.9631 48.4181 10.1232 41.2142 10.1232ZM41.1515 31.5701C45.8271 31.5701 49.6174 27.7798 49.6174 23.1042C49.6174 18.4286 45.8271 14.6383 41.1515 14.6383C36.4759 14.6383 32.6856 18.4286 32.6856 23.1042C32.6856 27.7798 36.4759 31.5701 41.1515 31.5701Z" fill="#3400CA"/>
<path d="M41.1515 16.8959C41.97 17.7201 42.4285 18.8352 42.4265 19.9969C42.4244 21.1585 41.9621 22.272 41.1407 23.0934C40.3193 23.9148 39.2058 24.3771 38.0442 24.3791C36.8825 24.3812 35.7675 23.9227 34.9432 23.1042C34.9432 24.3321 35.3073 25.5324 35.9895 26.5534C36.6717 27.5743 37.6413 28.3701 38.7757 28.84C39.9101 29.3099 41.1584 29.4328 42.3627 29.1932C43.567 28.9537 44.6732 28.3624 45.5415 27.4942C46.4097 26.6259 47.001 25.5197 47.2406 24.3154C47.4801 23.1111 47.3572 21.8628 46.8873 20.7284C46.4174 19.594 45.6216 18.6243 44.6007 17.9422C43.5797 17.26 42.3794 16.8959 41.1515 16.8959Z" fill="#FFA800"/>
<path d="M74.1285 27.854C72.9552 27.854 71.9071 27.7211 70.9841 27.4551C70.0768 27.1892 69.2711 26.8059 68.5672 26.3053C67.8788 25.8047 67.2609 25.2181 66.7134 24.5454L69.4354 21.4714C70.2176 22.4882 71.0232 23.1687 71.8523 23.5129C72.6814 23.8414 73.4871 24.0057 74.2693 24.0057C74.6134 24.0057 74.9263 23.9744 75.2079 23.9118C75.4895 23.8336 75.7007 23.7163 75.8415 23.5598C75.9979 23.3878 76.0761 23.1766 76.0761 22.9263C76.0761 22.7073 76.0136 22.5195 75.8884 22.3631C75.7633 22.2067 75.5912 22.0737 75.3722 21.9642C75.1531 21.839 74.9107 21.7295 74.6447 21.6357C74.3788 21.5418 74.1128 21.4714 73.8469 21.4245C73.581 21.3619 73.3228 21.2993 73.0725 21.2368C72.1496 21.0334 71.3439 20.7753 70.6556 20.4624C69.9673 20.1495 69.3884 19.7819 68.9191 19.3595C68.4655 18.9215 68.1213 18.4209 67.8867 17.8577C67.6676 17.2945 67.5581 16.661 67.5581 15.957C67.5581 15.1905 67.738 14.4865 68.0978 13.8451C68.4576 13.2037 68.9348 12.6562 69.5292 12.2025C70.1237 11.7332 70.8042 11.3812 71.5707 11.1466C72.3529 10.8963 73.1664 10.7711 74.0112 10.7711C75.1688 10.7711 76.1543 10.8885 76.9678 11.1231C77.7813 11.3421 78.4618 11.6628 79.0093 12.0852C79.5725 12.5076 80.0574 13.0003 80.4642 13.5635L77.6952 16.2386C77.3667 15.8788 77.0069 15.5816 76.6158 15.3469C76.2404 15.1122 75.8493 14.9402 75.4426 14.8307C75.0358 14.7055 74.6213 14.6429 74.1989 14.6429C73.8078 14.6429 73.4636 14.682 73.1664 14.7603C72.8848 14.8385 72.6658 14.9558 72.5094 15.1122C72.3529 15.253 72.2747 15.4486 72.2747 15.6989C72.2747 15.9179 72.3608 16.1134 72.5328 16.2855C72.7049 16.442 72.9239 16.5749 73.1899 16.6844C73.4558 16.7939 73.7374 16.8878 74.0346 16.966C74.3475 17.0286 74.6291 17.0834 74.8794 17.1303C75.7398 17.3024 76.522 17.5292 77.2259 17.8108C77.9455 18.0767 78.5713 18.4209 79.1032 18.8433C79.6351 19.25 80.0418 19.7506 80.3234 20.3451C80.605 20.9395 80.7458 21.6357 80.7458 22.4335C80.7458 23.6068 80.4485 24.6001 79.8541 25.4136C79.2753 26.2114 78.4853 26.8215 77.4841 27.2439C76.4985 27.6507 75.38 27.854 74.1285 27.854Z" fill="#3400CA"/>
<path d="M85.549 24.0526L83.5779 21.1429L89.3739 15.1122H95.0761L85.549 24.0526ZM81.2783 27.6194V10.2549H85.6664V27.6194H81.2783ZM89.7963 27.6194L85.5256 21.7999L88.5996 19.5472L94.8414 27.6194H89.7963Z" fill="#3400CA"/>
<path d="M96.0697 33.0164L99.0733 25.9299L99.1202 27.854L93.1834 15.1122H98.0642L100.153 20.0869C100.325 20.478 100.473 20.8691 100.599 21.2602C100.739 21.6357 100.841 21.9955 100.904 22.3396L100.411 22.7151C100.473 22.5117 100.567 22.2301 100.692 21.8703C100.818 21.5105 100.958 21.096 101.115 20.6266L103.015 15.1122H107.92L102.499 27.6194L100.317 33.0164H96.0697Z" fill="#3400CA"/>
<path d="M108.1 27.6194V11.1935H112.747V27.6194H108.1ZM110.306 21.6357V17.9046H118.801V21.6357H110.306ZM110.306 15.2061V11.1935H119.716V15.2061H110.306Z" fill="#3400CA"/>
<path d="M126.271 27.854C124.941 27.854 123.752 27.5724 122.704 27.0093C121.656 26.4461 120.835 25.6796 120.24 24.7096C119.646 23.7397 119.349 22.6212 119.349 21.3541C119.349 20.0869 119.646 18.9684 120.24 17.9985C120.835 17.0286 121.656 16.2621 122.704 15.6989C123.752 15.1357 124.941 14.8541 126.271 14.8541C127.601 14.8541 128.782 15.1357 129.814 15.6989C130.862 16.2621 131.684 17.0286 132.278 17.9985C132.873 18.9684 133.17 20.0869 133.17 21.3541C133.17 22.6212 132.873 23.7397 132.278 24.7096C131.684 25.6796 130.862 26.4461 129.814 27.0093C128.782 27.5724 127.601 27.854 126.271 27.854ZM126.271 24.1699C126.74 24.1699 127.163 24.0526 127.538 23.818C127.929 23.5677 128.226 23.2313 128.43 22.8089C128.649 22.3709 128.758 21.886 128.758 21.3541C128.758 20.7909 128.649 20.2981 128.43 19.8757C128.226 19.4534 127.929 19.1249 127.538 18.8902C127.163 18.6399 126.74 18.5147 126.271 18.5147C125.786 18.5147 125.356 18.6399 124.98 18.8902C124.605 19.1249 124.308 19.4612 124.089 19.8992C123.87 20.3216 123.76 20.8065 123.76 21.3541C123.76 21.886 123.87 22.3709 124.089 22.8089C124.308 23.2313 124.605 23.5677 124.98 23.818C125.356 24.0526 125.786 24.1699 126.271 24.1699Z" fill="#3400CA"/>
<path d="M133.671 27.6194V15.1122H137.754L137.988 19.2187L137.073 18.5147C137.276 17.8264 137.589 17.2085 138.012 16.661C138.45 16.0978 138.974 15.6598 139.584 15.3469C140.194 15.0184 140.835 14.8541 141.508 14.8541C141.79 14.8541 142.056 14.8776 142.306 14.9245C142.556 14.9558 142.791 15.0027 143.01 15.0653L141.813 19.8992C141.641 19.7897 141.399 19.6958 141.086 19.6176C140.773 19.5238 140.437 19.4768 140.077 19.4768C139.764 19.4768 139.482 19.5316 139.232 19.6411C138.982 19.735 138.77 19.8757 138.598 20.0635C138.426 20.2512 138.293 20.478 138.199 20.744C138.106 20.9943 138.059 21.2915 138.059 21.6357V27.6194H133.671Z" fill="#3400CA"/>
<path d="M148.503 27.854C147.079 27.854 145.851 27.5803 144.819 27.0327C143.786 26.4696 142.988 25.703 142.425 24.7331C141.862 23.7476 141.58 22.629 141.58 21.3775C141.58 20.4389 141.737 19.5707 142.05 18.7729C142.363 17.975 142.801 17.2867 143.364 16.7079C143.927 16.1134 144.592 15.6598 145.358 15.3469C146.14 15.0184 146.993 14.8541 147.916 14.8541C148.823 14.8541 149.645 15.0106 150.38 15.3234C151.131 15.6363 151.772 16.0822 152.304 16.661C152.852 17.2398 153.266 17.9203 153.548 18.7025C153.845 19.4847 153.978 20.3451 153.947 21.2837L153.923 22.2692H144.068L143.528 20.0869H150.427L150.004 20.5562V20.1104C150.004 19.7662 149.911 19.469 149.723 19.2187C149.551 18.9528 149.316 18.7494 149.019 18.6086C148.722 18.4678 148.385 18.3974 148.01 18.3974C147.478 18.3974 147.032 18.5069 146.672 18.7259C146.328 18.9293 146.062 19.2265 145.875 19.6176C145.687 20.0087 145.593 20.478 145.593 21.0256C145.593 21.6513 145.718 22.191 145.968 22.6447C146.234 23.0983 146.618 23.4503 147.118 23.7006C147.634 23.9509 148.26 24.0761 148.995 24.0761C149.48 24.0761 149.903 24.0135 150.263 23.8884C150.638 23.7632 151.037 23.5442 151.459 23.2313L153.477 26.0706C152.93 26.5087 152.374 26.8607 151.811 27.1266C151.264 27.3769 150.716 27.5568 150.169 27.6663C149.621 27.7915 149.066 27.854 148.503 27.854Z" fill="#3400CA"/>
<path d="M159.929 27.854C158.693 27.854 157.582 27.5724 156.597 27.0093C155.627 26.4461 154.86 25.6796 154.297 24.7096C153.734 23.7241 153.452 22.6056 153.452 21.3541C153.452 20.1026 153.734 18.9919 154.297 18.022C154.86 17.0364 155.627 16.2621 156.597 15.6989C157.582 15.1357 158.693 14.8541 159.929 14.8541C161.055 14.8541 162.088 15.034 163.026 15.3938C163.981 15.7536 164.739 16.2699 165.303 16.9426L162.932 19.7584C162.76 19.5394 162.541 19.3439 162.275 19.1718C162.01 18.9841 161.712 18.8433 161.384 18.7494C161.071 18.6399 160.719 18.5851 160.328 18.5851C159.812 18.5851 159.358 18.7025 158.967 18.9371C158.576 19.1718 158.271 19.5003 158.052 19.9227C157.848 20.3294 157.747 20.7987 157.747 21.3306C157.747 21.8625 157.848 22.3318 158.052 22.7385C158.255 23.1453 158.552 23.4738 158.943 23.7241C159.35 23.9744 159.812 24.0995 160.328 24.0995C160.719 24.0995 161.071 24.0526 161.384 23.9588C161.712 23.8649 162.002 23.7319 162.252 23.5598C162.518 23.3878 162.745 23.1844 162.932 22.9497L165.303 25.7891C164.724 26.4461 163.957 26.9545 163.003 27.3143C162.064 27.6741 161.04 27.854 159.929 27.854Z" fill="#3400CA"/>
<path d="M169.897 27.8306C168.865 27.8306 167.934 27.5568 167.105 27.0093C166.291 26.4461 165.642 25.6796 165.157 24.7096C164.688 23.7241 164.453 22.6056 164.453 21.3541C164.453 20.0713 164.688 18.945 165.157 17.975C165.626 17.0051 166.276 16.2464 167.105 15.6989C167.934 15.1357 168.888 14.8541 169.968 14.8541C170.546 14.8541 171.078 14.9323 171.563 15.0888C172.048 15.2452 172.471 15.4721 172.83 15.7693C173.19 16.0665 173.503 16.4029 173.769 16.7783C174.035 17.1537 174.254 17.5605 174.426 17.9985L173.534 17.9516V15.1122H177.829V27.6194H173.44V24.5689L174.403 24.6158C174.262 25.0695 174.051 25.4918 173.769 25.8829C173.503 26.274 173.175 26.6182 172.783 26.9154C172.392 27.197 171.954 27.4238 171.469 27.5959C171 27.7523 170.476 27.8306 169.897 27.8306ZM171.141 24.2403C171.641 24.2403 172.072 24.1308 172.431 23.9118C172.791 23.6772 173.065 23.3408 173.253 22.9028C173.456 22.4648 173.558 21.9485 173.558 21.3541C173.558 20.744 173.456 20.2199 173.253 19.7819C173.065 19.3439 172.791 19.0153 172.431 18.7963C172.072 18.5617 171.641 18.4444 171.141 18.4444C170.64 18.4444 170.21 18.5617 169.85 18.7963C169.506 19.0153 169.24 19.3439 169.052 19.7819C168.865 20.2199 168.771 20.744 168.771 21.3541C168.771 21.9485 168.865 22.4648 169.052 22.9028C169.24 23.3408 169.506 23.6772 169.85 23.9118C170.21 24.1308 170.64 24.2403 171.141 24.2403Z" fill="#3400CA"/>
<path d="M183.505 27.854C182.206 27.854 181.064 27.6507 180.079 27.2439C179.093 26.8372 178.327 26.3131 177.779 25.6717L180.337 23.466C180.838 23.9196 181.401 24.256 182.026 24.475C182.668 24.694 183.231 24.8035 183.716 24.8035C183.888 24.8035 184.045 24.7879 184.185 24.7566C184.326 24.7253 184.436 24.6784 184.514 24.6158C184.608 24.5376 184.678 24.4593 184.725 24.3811C184.788 24.2873 184.819 24.1856 184.819 24.0761C184.819 23.8101 184.686 23.6068 184.42 23.466C184.279 23.4034 184.045 23.3252 183.716 23.2313C183.403 23.1218 182.981 23.0045 182.449 22.8793C181.792 22.7073 181.205 22.5039 180.689 22.2692C180.173 22.0189 179.735 21.7295 179.375 21.401C179.031 21.0725 178.757 20.697 178.554 20.2747C178.366 19.8366 178.272 19.3595 178.272 18.8433C178.272 18.2175 178.413 17.6622 178.694 17.1772C178.976 16.6923 179.367 16.2777 179.868 15.9335C180.368 15.5737 180.931 15.3078 181.557 15.1357C182.183 14.948 182.824 14.8541 183.481 14.8541C184.217 14.8541 184.905 14.9323 185.546 15.0888C186.203 15.2296 186.813 15.4408 187.377 15.7224C187.955 15.9883 188.472 16.3168 188.925 16.7079L186.673 19.1952C186.407 18.9606 186.094 18.7416 185.734 18.5382C185.39 18.3348 185.03 18.1706 184.655 18.0454C184.279 17.9046 183.927 17.8342 183.599 17.8342C183.395 17.8342 183.223 17.8499 183.082 17.8812C182.942 17.9125 182.824 17.9594 182.73 18.022C182.637 18.0845 182.566 18.1628 182.519 18.2566C182.472 18.3505 182.449 18.4522 182.449 18.5617C182.449 18.7025 182.488 18.8354 182.566 18.9606C182.644 19.0857 182.77 19.1874 182.942 19.2656C183.082 19.3439 183.317 19.4455 183.646 19.5707C183.99 19.6802 184.483 19.821 185.124 19.9931C185.844 20.1964 186.469 20.4311 187.001 20.697C187.533 20.963 187.963 21.268 188.292 21.6122C188.526 21.8781 188.706 22.1754 188.831 22.5039C188.957 22.8168 189.019 23.1687 189.019 23.5598C189.019 24.389 188.777 25.132 188.292 25.7891C187.822 26.4305 187.173 26.9389 186.344 27.3143C185.515 27.6741 184.569 27.854 183.505 27.854Z" fill="#3400CA"/>
<path d="M189.957 27.6194V11.9444H194.321V27.6194H189.957ZM187.892 18.8198V15.1122H196.504V18.8198H187.892Z" fill="#3400CA"/>
</svg>
