<svg width="93" height="20" viewBox="0 0 93 20" fill="none" xmlns="http://www.w3.org/2000/svg">
<path d="M5.05052 7.19913L5.1722 6.59997C5.84235 3.3 8.7965 0.805084 12.3922 0.805084C15.0752 0.805084 17.4098 2.21031 18.6975 4.29902C17.6468 4.39326 16.6609 4.7124 15.7883 5.20796C14.9566 4.23681 13.7223 3.66195 12.3922 3.66195C10.284 3.66195 8.45572 5.12453 8.04528 7.15384L7.52291 9.74991H4.92967C3.90357 9.74991 3.06404 10.5726 3.06404 11.5781C3.06404 12.5836 3.90357 13.4063 4.92967 13.4063H12.3811C12.6744 14.4787 13.2085 15.4516 13.9218 16.2632H4.78042C2.20298 16.2632 0.132324 14.211 0.132324 11.7244C0.132324 9.35065 2.0234 7.39558 4.44042 7.23872L5.05052 7.19913Z" fill="black" fill-opacity="0.6"/>
<path fill-rule="evenodd" clip-rule="evenodd" d="M19.351 5.33591C15.9491 5.33591 13.1914 8.09364 13.1914 11.4955C13.1914 14.8973 15.9491 17.655 19.351 17.655C20.4933 17.655 21.5629 17.3441 22.48 16.8022L24.4217 18.7439C25.023 19.3453 25.998 19.3453 26.5994 18.7439C27.2008 18.1425 27.2008 17.1675 26.5994 16.5662L24.6577 14.6245C25.1996 13.7074 25.5105 12.6378 25.5105 11.4955C25.5105 8.09364 22.7528 5.33591 19.351 5.33591ZM19.3214 15.4636C21.5293 15.4636 23.3191 13.6738 23.3191 11.4659C23.3191 9.25793 21.5293 7.46806 19.3214 7.46806C17.1134 7.46806 15.3236 9.25793 15.3236 11.4659C15.3236 13.6738 17.1134 15.4636 19.3214 15.4636Z" fill="black" fill-opacity="0.6"/>
<path d="M19.3217 8.53415C19.7082 8.92339 19.9247 9.44995 19.9238 9.9985C19.9228 10.5471 19.7045 11.0729 19.3166 11.4607C18.9287 11.8486 18.4029 12.067 17.8543 12.0679C17.3058 12.0689 16.7792 11.8524 16.39 11.4659C16.39 12.0457 16.5619 12.6125 16.8841 13.0946C17.2062 13.5768 17.6641 13.9525 18.1998 14.1744C18.7355 14.3963 19.325 14.4544 19.8937 14.3412C20.4623 14.2281 20.9847 13.9489 21.3947 13.5389C21.8047 13.1289 22.084 12.6065 22.1971 12.0378C22.3102 11.4691 22.2521 10.8796 22.0303 10.3439C21.8084 9.80824 21.4326 9.35037 20.9505 9.02823C20.4684 8.70609 19.9015 8.53415 19.3217 8.53415Z" fill="black" fill-opacity="0.6"/>
<path d="M34.8942 13.7088C34.3401 13.7088 33.8452 13.646 33.4093 13.5204C32.9808 13.3949 32.6004 13.2139 32.268 12.9775C31.9429 12.7411 31.6511 12.4641 31.3926 12.1464L32.678 10.6948C33.0473 11.175 33.4278 11.4963 33.8193 11.6589C34.2108 11.814 34.5913 11.8916 34.9606 11.8916C35.1232 11.8916 35.2709 11.8768 35.4039 11.8472C35.5369 11.8103 35.6366 11.7549 35.7031 11.681C35.7769 11.5998 35.8139 11.5 35.8139 11.3818C35.8139 11.2784 35.7843 11.1898 35.7252 11.1159C35.6661 11.042 35.5849 10.9792 35.4814 10.9275C35.378 10.8684 35.2635 10.8167 35.1379 10.7724C35.0124 10.7281 34.8868 10.6948 34.7612 10.6726C34.6356 10.6431 34.5137 10.6135 34.3955 10.584C33.9597 10.488 33.5792 10.3661 33.2542 10.2183C32.9291 10.0706 32.6558 9.89698 32.4342 9.69752C32.22 9.49068 32.0574 9.25429 31.9466 8.98834C31.8432 8.7224 31.7915 8.42321 31.7915 8.09079C31.7915 7.72881 31.8764 7.39638 32.0464 7.0935C32.2163 6.79062 32.4416 6.53207 32.7223 6.31784C33.003 6.09622 33.3244 5.93 33.6863 5.81919C34.0557 5.701 34.4398 5.6419 34.8388 5.6419C35.3854 5.6419 35.8508 5.6973 36.235 5.80811C36.6191 5.91153 36.9404 6.06297 37.199 6.26243C37.4649 6.46189 37.6939 6.69459 37.886 6.96053L36.5785 8.22376C36.4233 8.05385 36.2534 7.91349 36.0687 7.80268C35.8914 7.69187 35.7068 7.61061 35.5147 7.5589C35.3226 7.4998 35.1269 7.47025 34.9274 7.47025C34.7427 7.47025 34.5802 7.48872 34.4398 7.52566C34.3069 7.56259 34.2034 7.618 34.1296 7.69187C34.0557 7.75836 34.0188 7.8507 34.0188 7.9689C34.0188 8.07232 34.0594 8.16466 34.1407 8.24592C34.2219 8.31979 34.3253 8.38258 34.4509 8.4343C34.5765 8.48601 34.7095 8.53033 34.8498 8.56727C34.9976 8.59682 35.1306 8.62267 35.2487 8.64483C35.655 8.72609 36.0244 8.83321 36.3568 8.96618C36.6967 9.09177 36.9921 9.25429 37.2433 9.45374C37.4945 9.64581 37.6866 9.88221 37.8195 10.1629C37.9525 10.4436 38.019 10.7724 38.019 11.1491C38.019 11.7032 37.8786 12.1723 37.5979 12.5564C37.3246 12.9332 36.9515 13.2213 36.4787 13.4207C36.0133 13.6128 35.4851 13.7088 34.8942 13.7088Z" fill="black" fill-opacity="0.6"/>
<path d="M40.2872 11.9137L39.3564 10.5397L42.0934 7.69187H44.7861L40.2872 11.9137ZM38.2705 13.598V5.39812H40.3426V13.598H38.2705ZM42.2929 13.598L40.2761 10.8499L41.7277 9.78617L44.6753 13.598H42.2929Z" fill="black" fill-opacity="0.6"/>
<path d="M45.2553 16.1466L46.6736 12.8002L46.6958 13.7088L43.8923 7.69187H46.1972L47.1834 10.041C47.2646 10.2257 47.3348 10.4104 47.3939 10.5951C47.4604 10.7724 47.5084 10.9423 47.5379 11.1048L47.3052 11.2821C47.3348 11.1861 47.3791 11.0531 47.4382 10.8832C47.4973 10.7133 47.5638 10.5175 47.6377 10.2959L48.5352 7.69187H50.8511L48.2915 13.598L47.2609 16.1466H45.2553Z" fill="black" fill-opacity="0.6"/>
<path d="M50.9364 13.598V5.84135H53.1304V13.598H50.9364ZM51.978 10.7724V9.0105H55.9893V10.7724H51.978ZM51.978 7.7362V5.84135H56.4215V7.7362H51.978Z" fill="black" fill-opacity="0.6"/>
<path d="M59.517 13.7088C58.889 13.7088 58.3276 13.5759 57.8327 13.3099C57.3377 13.044 56.9499 12.682 56.6692 12.224C56.3884 11.766 56.2481 11.2378 56.2481 10.6394C56.2481 10.041 56.3884 9.51284 56.6692 9.05483C56.9499 8.59682 57.3377 8.23484 57.8327 7.9689C58.3276 7.70295 58.889 7.56998 59.517 7.56998C60.1449 7.56998 60.7026 7.70295 61.1902 7.9689C61.6851 8.23484 62.073 8.59682 62.3537 9.05483C62.6344 9.51284 62.7748 10.041 62.7748 10.6394C62.7748 11.2378 62.6344 11.766 62.3537 12.224C62.073 12.682 61.6851 13.044 61.1902 13.3099C60.7026 13.5759 60.1449 13.7088 59.517 13.7088ZM59.517 11.9691C59.7386 11.9691 59.938 11.9137 60.1153 11.8029C60.3 11.6847 60.4404 11.5259 60.5364 11.3264C60.6398 11.1196 60.6915 10.8906 60.6915 10.6394C60.6915 10.3735 60.6398 10.1408 60.5364 9.9413C60.4404 9.74185 60.3 9.58671 60.1153 9.4759C59.938 9.35771 59.7386 9.29861 59.517 9.29861C59.288 9.29861 59.0848 9.35771 58.9075 9.4759C58.7302 9.58671 58.5899 9.74554 58.4864 9.95239C58.383 10.1518 58.3313 10.3808 58.3313 10.6394C58.3313 10.8906 58.383 11.1196 58.4864 11.3264C58.5899 11.5259 58.7302 11.6847 58.9075 11.8029C59.0848 11.9137 59.288 11.9691 59.517 11.9691Z" fill="black" fill-opacity="0.6"/>
<path d="M63.0113 13.598V7.69187H64.9394L65.0502 9.63104L64.618 9.29861C64.714 8.97357 64.8618 8.68177 65.0612 8.42321C65.2681 8.15727 65.5156 7.95043 65.8037 7.80268C66.0918 7.64755 66.3947 7.56998 66.7123 7.56998C66.8453 7.56998 66.9709 7.58106 67.0891 7.60323C67.2073 7.618 67.3181 7.64016 67.4215 7.66971L66.8564 9.95239C66.7751 9.90067 66.6606 9.85635 66.5129 9.81941C66.3651 9.77509 66.2063 9.75293 66.0364 9.75293C65.8886 9.75293 65.7557 9.77878 65.6375 9.8305C65.5193 9.87482 65.4195 9.9413 65.3383 10.03C65.257 10.1186 65.1942 10.2257 65.1499 10.3513C65.1056 10.4695 65.0834 10.6099 65.0834 10.7724V13.598H63.0113Z" fill="black" fill-opacity="0.6"/>
<path d="M70.0153 13.7088C69.3431 13.7088 68.7632 13.5795 68.2756 13.321C67.788 13.055 67.4113 12.6931 67.1453 12.2351C66.8794 11.7697 66.7464 11.2415 66.7464 10.6505C66.7464 10.2072 66.8203 9.79725 66.968 9.4205C67.1158 9.04375 67.3226 8.71871 67.5886 8.44538C67.8545 8.16466 68.1685 7.95043 68.5305 7.80268C68.8998 7.64755 69.3024 7.56998 69.7383 7.56998C70.1667 7.56998 70.5546 7.64385 70.9018 7.7916C71.2564 7.93935 71.5592 8.14988 71.8104 8.42321C72.069 8.69654 72.2647 9.01789 72.3977 9.38726C72.5381 9.75662 72.6009 10.1629 72.5861 10.6062L72.575 11.0716H67.921L67.6661 10.041H70.9239L70.7245 10.2627V10.0521C70.7245 9.88959 70.6802 9.74923 70.5915 9.63104C70.5102 9.50545 70.3994 9.40942 70.2591 9.34293C70.1187 9.27645 69.9599 9.2432 69.7826 9.2432C69.5314 9.2432 69.3209 9.29492 69.151 9.39834C68.9885 9.49437 68.8629 9.63473 68.7742 9.81941C68.6856 10.0041 68.6413 10.2257 68.6413 10.4843C68.6413 10.7798 68.7004 11.0346 68.8186 11.2489C68.9441 11.4631 69.1251 11.6293 69.3615 11.7475C69.6053 11.8657 69.9008 11.9248 70.248 11.9248C70.477 11.9248 70.6765 11.8952 70.8464 11.8361C71.0237 11.777 71.212 11.6736 71.4115 11.5259L72.3645 12.8667C72.1059 13.0735 71.8437 13.2397 71.5777 13.3653C71.3192 13.4835 71.0606 13.5685 70.802 13.6202C70.5435 13.6793 70.2812 13.7088 70.0153 13.7088Z" fill="black" fill-opacity="0.6"/>
<path d="M75.411 13.7088C74.8274 13.7088 74.3029 13.5759 73.8375 13.3099C73.3795 13.044 73.0175 12.682 72.7516 12.224C72.4857 11.7586 72.3527 11.2304 72.3527 10.6394C72.3527 10.0484 72.4857 9.52392 72.7516 9.06591C73.0175 8.60051 73.3795 8.23484 73.8375 7.9689C74.3029 7.70295 74.8274 7.56998 75.411 7.56998C75.9429 7.56998 76.4305 7.65494 76.8737 7.82484C77.3243 7.99475 77.6826 8.23853 77.9486 8.55619L76.8294 9.8859C76.7481 9.78248 76.6447 9.69014 76.5191 9.60888C76.3935 9.52023 76.2532 9.45374 76.098 9.40942C75.9503 9.35771 75.7841 9.33185 75.5994 9.33185C75.3556 9.33185 75.1414 9.38726 74.9567 9.49807C74.772 9.60888 74.628 9.76401 74.5246 9.96347C74.4285 10.1555 74.3805 10.3772 74.3805 10.6283C74.3805 10.8795 74.4285 11.1011 74.5246 11.2932C74.6206 11.4852 74.7609 11.6404 74.9456 11.7586C75.1377 11.8768 75.3556 11.9359 75.5994 11.9359C75.7841 11.9359 75.9503 11.9137 76.098 11.8694C76.2532 11.8251 76.3898 11.7623 76.508 11.681C76.6336 11.5998 76.7407 11.5037 76.8294 11.3929L77.9486 12.7337C77.6752 13.044 77.3133 13.2841 76.8626 13.454C76.4194 13.6239 75.9355 13.7088 75.411 13.7088Z" fill="black" fill-opacity="0.6"/>
<path d="M80.1183 13.6977C79.6307 13.6977 79.1912 13.5685 78.7996 13.3099C78.4155 13.044 78.1089 12.682 77.8799 12.224C77.6583 11.7586 77.5475 11.2304 77.5475 10.6394C77.5475 10.0336 77.6583 9.50176 77.8799 9.04375C78.1015 8.58574 78.4081 8.22745 78.7996 7.9689C79.1912 7.70295 79.6418 7.56998 80.1515 7.56998C80.4248 7.56998 80.676 7.60692 80.905 7.68079C81.134 7.75466 81.3335 7.86178 81.5034 8.00214C81.6733 8.1425 81.821 8.30132 81.9466 8.47862C82.0722 8.65591 82.1756 8.84798 82.2569 9.05483L81.8358 9.03267V7.69187H83.8636V13.598H81.7915V12.1575L82.2458 12.1797C82.1793 12.3939 82.0796 12.5933 81.9466 12.778C81.821 12.9627 81.6659 13.1252 81.4812 13.2656C81.2965 13.3986 81.0897 13.5057 80.8607 13.5869C80.6391 13.6608 80.3916 13.6977 80.1183 13.6977ZM80.7056 12.0024C80.9419 12.0024 81.1451 11.9506 81.315 11.8472C81.4849 11.7364 81.6142 11.5776 81.7028 11.3707C81.7989 11.1639 81.8469 10.9201 81.8469 10.6394C81.8469 10.3513 81.7989 10.1038 81.7028 9.89698C81.6142 9.69014 81.4849 9.535 81.315 9.43158C81.1451 9.32077 80.9419 9.26537 80.7056 9.26537C80.4692 9.26537 80.266 9.32077 80.0961 9.43158C79.9336 9.535 79.808 9.69014 79.7193 9.89698C79.6307 10.1038 79.5864 10.3513 79.5864 10.6394C79.5864 10.9201 79.6307 11.1639 79.7193 11.3707C79.808 11.5776 79.9336 11.7364 80.0961 11.8472C80.266 11.9506 80.4692 12.0024 80.7056 12.0024Z" fill="black" fill-opacity="0.6"/>
<path d="M86.5441 13.7088C85.9309 13.7088 85.3917 13.6128 84.9263 13.4207C84.4609 13.2287 84.0989 12.9812 83.8403 12.6783L85.0482 11.6367C85.2845 11.8509 85.5505 12.0097 85.846 12.1132C86.1489 12.2166 86.4148 12.2683 86.6438 12.2683C86.7251 12.2683 86.7989 12.2609 86.8654 12.2461C86.9319 12.2314 86.9836 12.2092 87.0206 12.1797C87.0649 12.1427 87.0981 12.1058 87.1203 12.0688C87.1498 12.0245 87.1646 11.9765 87.1646 11.9248C87.1646 11.7992 87.1018 11.7032 86.9762 11.6367C86.9098 11.6071 86.7989 11.5702 86.6438 11.5259C86.4961 11.4742 86.2966 11.4188 86.0454 11.3597C85.7352 11.2784 85.4582 11.1824 85.2144 11.0716C84.9706 10.9534 84.7637 10.8167 84.5938 10.6616C84.4313 10.5064 84.302 10.3291 84.206 10.1297C84.1174 9.92284 84.073 9.69752 84.073 9.45374C84.073 9.15825 84.1395 8.896 84.2725 8.667C84.4055 8.43799 84.5901 8.24223 84.8265 8.07971C85.0629 7.9098 85.3289 7.78421 85.6244 7.70295C85.9199 7.61431 86.2227 7.56998 86.533 7.56998C86.8802 7.56998 87.2052 7.60692 87.5081 7.68079C87.8184 7.74728 88.1065 7.84701 88.3724 7.97998C88.6458 8.10556 88.8895 8.26069 89.1038 8.44538L88.04 9.61996C87.9144 9.50915 87.7667 9.40573 87.5968 9.30969C87.4343 9.21366 87.2643 9.13609 87.087 9.07699C86.9098 9.0105 86.7435 8.97726 86.5884 8.97726C86.4924 8.97726 86.4111 8.98465 86.3446 8.99942C86.2781 9.0142 86.2227 9.03636 86.1784 9.06591C86.1341 9.09546 86.1008 9.1324 86.0787 9.17672C86.0565 9.22104 86.0454 9.26906 86.0454 9.32077C86.0454 9.38726 86.0639 9.45005 86.1008 9.50915C86.1378 9.56825 86.1969 9.61626 86.2781 9.6532C86.3446 9.69014 86.4554 9.73815 86.6106 9.79725C86.7731 9.84896 87.0058 9.91545 87.3087 9.99671C87.6485 10.0927 87.944 10.2036 88.1951 10.3291C88.4463 10.4547 88.6495 10.5988 88.8046 10.7613C88.9154 10.8869 89.0004 11.0272 89.0595 11.1824C89.1186 11.3301 89.1481 11.4963 89.1481 11.681C89.1481 12.0725 89.0336 12.4234 88.8046 12.7337C88.583 13.0366 88.2764 13.2767 87.8849 13.454C87.4933 13.6239 87.0464 13.7088 86.5441 13.7088Z" fill="black" fill-opacity="0.6"/>
<path d="M89.5908 13.598V6.19594H91.6519V13.598H89.5908ZM88.6157 9.44266V7.69187H92.6824V9.44266H88.6157Z" fill="black" fill-opacity="0.6"/>
</svg>
