<svg width="557" height="371" viewBox="0 0 557 371" fill="none" xmlns="http://www.w3.org/2000/svg">
<path opacity="0.15" d="M278.5 46.375C339.306 46.375 391.757 89.5038 403.593 149.096L410.555 183.877L446.064 186.428C482.269 188.746 510.583 219.122 510.583 255.063C510.583 293.322 479.252 324.625 440.958 324.625H139.25C87.9596 324.625 46.4167 283.119 46.4167 231.875C46.4167 184.341 81.9254 144.69 129.038 139.821L153.871 137.27L165.475 115.242C187.523 72.8088 230.691 46.375 278.5 46.375ZM278.5 0C211.428 0 153.175 38.0275 124.165 93.6775C54.3075 101.098 0 160.226 0 231.875C0 308.626 62.4304 371 139.25 371H440.958C505.013 371 557 319.06 557 255.063C557 193.848 509.423 144.226 449.081 140.053C433.3 60.0556 362.978 0 278.5 0Z" fill="#3400CA"/>
</svg>
