<svg width="515" height="486" viewBox="0 0 515 486" fill="none" xmlns="http://www.w3.org/2000/svg">
<path d="M214.782 414.743L264.637 422.834L311.442 472.067L372.687 485.947L514.97 403.291V388.664L454.347 374.847L407.293 325.365L357.065 317.212L214.845 399.867L214.782 414.743Z" fill="#ACACAC"/>
<path d="M265.018 408.015L407.27 325.347L357.085 317.212L214.834 399.88L265.018 408.015Z" fill="#ACACAC"/>
<path d="M280.386 361.776L330.552 369.93L353.145 356.797L341.506 354.93L395.656 323.436L368.768 319.079L314.556 350.573L302.917 348.706L280.386 361.776Z" fill="#ACACAC"/>
<path d="M306.663 377.972L272.182 372.37L234.563 394.235L269.045 399.837L306.663 377.972Z" fill="#ACACAC"/>
<path d="M312.118 457.529L454.37 374.86L407.266 325.348L265.015 408.016L312.118 457.529Z" fill="#ACACAC"/>
<path d="M377.651 419.443L400.213 406.329L353.109 356.816L330.547 369.924L377.651 419.443Z" fill="#ACACAC"/>
<path d="M372.742 471.358L514.994 388.69L454.365 374.86L312.113 457.528L372.742 471.358Z" fill="#ACACAC"/>
<path d="M501.407 390.762L455.206 380.225L419.268 401.112L465.469 411.65L501.407 390.762Z" fill="#ACACAC"/>
<path d="M330.173 461.673L354.696 467.274L420.236 429.183L438.285 433.291L460.816 420.158L400.194 406.341L377.663 419.411L395.713 423.519L330.173 461.673Z" fill="#ACACAC"/>
<path d="M372.705 485.94L514.956 403.271L515 388.688L372.748 471.357L372.705 485.94Z" fill="#ACACAC"/>
<path d="M265.018 408.015L214.834 399.88L214.79 414.725L264.658 422.859L311.469 472.03L372.708 485.916L372.751 471.333L312.122 457.503L265.018 408.015Z" fill="#ACACAC"/>
<path d="M234.759 278.959C234.038 279.193 233.335 279.48 232.656 279.818L245.496 272.305C259.712 264.164 278.023 279.401 287.465 293.05C295.263 303.821 299.727 316.643 300.305 329.928C300.542 333.328 300.066 336.74 298.906 339.945C297.746 343.15 295.929 346.077 293.571 348.538C283.469 358.852 271.257 374.499 268.456 388.659C268.421 388.733 268.37 388.799 268.307 388.852L255.467 396.364C255.498 396.364 255.504 396.271 255.523 396.227C255.504 396.262 255.478 396.293 255.446 396.317C255.414 396.341 255.377 396.358 255.338 396.367C255.298 396.375 255.258 396.374 255.219 396.365C255.18 396.356 255.143 396.339 255.112 396.314C254.987 396.237 254.882 396.134 254.802 396.011C254.722 395.888 254.671 395.749 254.651 395.604C251.141 373.36 232.512 332.505 230.11 327.258L229.836 326.635C222.099 310.652 218.471 285.507 234.759 278.959Z" fill="#ACACAC"/>
<path d="M255.552 396.121C255.557 396.167 255.55 396.213 255.533 396.255C255.515 396.297 255.488 396.335 255.453 396.364L268.293 388.852C268.356 388.799 268.407 388.733 268.443 388.659C272.028 370.534 290.849 351.252 293.301 348.824L280.411 356.337C278.009 358.758 259.212 377.997 255.552 396.121Z" fill="#ACACAC"/>
<path d="M232.651 279.843C235.57 278.366 238.8 277.609 242.071 277.635C245.342 277.661 248.559 278.47 251.454 279.993C260.919 284.601 268.933 291.726 274.614 300.588C282.403 311.36 286.853 324.185 287.411 337.466C287.657 340.862 287.188 344.273 286.036 347.477C284.884 350.681 283.072 353.608 280.72 356.07L293.566 348.564C295.924 346.103 297.742 343.176 298.902 339.971C300.061 336.766 300.538 333.354 300.301 329.954C299.723 316.669 295.259 303.846 287.461 293.076C281.737 284.28 273.752 277.186 264.344 272.537C261.444 271.006 258.22 270.189 254.941 270.156C251.662 270.122 248.422 270.872 245.492 272.344L232.651 279.843Z" fill="#ACACAC"/>
<path d="M223.359 297.489C222.976 307.609 225.21 317.657 229.845 326.661L230.119 327.283C232.521 332.53 251.15 373.385 254.66 395.63C254.681 395.776 254.733 395.915 254.812 396.039C254.892 396.162 254.997 396.267 255.121 396.346C255.327 396.464 255.538 396.439 255.594 396.171C259.223 378.047 278.001 358.784 280.447 356.338L280.727 356.057C283.082 353.593 284.895 350.663 286.049 347.455C287.203 344.248 287.674 340.835 287.43 337.435C287.492 315.508 270.955 288.544 251.474 280.005C236.511 273.432 224.561 280.901 223.359 297.489Z" fill="#ACACAC"/>
<path d="M248.034 292.496C262.872 295.253 276.665 316.079 276.665 332.331C276.717 335.161 276.179 337.972 275.084 340.584C271.879 347.841 264.092 349.783 255.105 344.579C248.891 340.53 243.72 335.072 240.011 328.649C236.301 322.227 234.159 315.02 233.756 307.615C233.837 296.915 239.781 291.183 248.034 292.496Z" fill="#ACACAC"/>
<path d="M248.034 292.496C250.593 293.012 253.047 293.955 255.292 295.285C261.517 299.341 266.698 304.807 270.417 311.239C274.135 317.671 276.287 324.888 276.697 332.306C276.749 335.137 276.21 337.948 275.116 340.559C272.542 340.044 270.072 339.101 267.809 337.771C261.6 333.702 256.434 328.233 252.726 321.802C249.018 315.372 246.872 308.161 246.46 300.75C246.41 297.919 246.945 295.109 248.034 292.496Z" fill="#ACACAC"/>
<path d="M408.664 266.1C408.591 261.369 409.772 256.703 412.086 252.577C414.4 248.45 417.766 245.009 421.84 242.604C421.473 242.784 421.093 242.94 420.744 243.145L437.431 233.38C441.239 231.47 445.448 230.497 449.708 230.541C453.968 230.586 458.156 231.646 461.923 233.635C463.696 234.415 465.42 235.298 467.089 236.28C477.033 242.398 485.527 250.604 491.985 260.33C502.121 274.326 507.923 290.991 508.672 308.255C508.98 312.672 508.361 317.105 506.854 321.268C505.347 325.432 502.985 329.234 499.921 332.43C500.544 332.43 500.544 332.43 499.921 332.43L499.56 332.797C500.214 333.033 500.245 333.04 499.591 332.797C496.38 335.946 471.95 361.011 467.288 384.557C467.242 384.652 467.178 384.739 467.102 384.812L450.415 394.571C450.452 394.534 450.458 394.447 450.483 394.391C450.46 394.438 450.426 394.478 450.384 394.51C450.343 394.543 450.295 394.565 450.244 394.576C450.192 394.587 450.139 394.587 450.088 394.576C450.037 394.564 449.989 394.541 449.948 394.509C449.785 394.41 449.647 394.275 449.544 394.114C449.442 393.953 449.377 393.771 449.357 393.582C444.794 364.683 420.583 311.585 417.458 304.776L417.104 303.998C411.084 292.299 408.177 279.248 408.664 266.1Z" fill="#ACACAC"/>
<path d="M482.862 342.551L499.561 332.804L499.923 332.437L483.223 342.184L482.862 342.551Z" fill="#ACACAC"/>
<path d="M450.544 394.267C450.551 394.326 450.543 394.386 450.521 394.441C450.5 394.496 450.465 394.546 450.42 394.584L467.107 384.825C467.185 384.753 467.248 384.667 467.293 384.57C471.955 361.024 496.385 335.96 499.596 332.81L482.848 342.57C479.698 345.719 455.269 370.715 450.544 394.267Z" fill="#ACACAC"/>
<path d="M420.759 243.122C439.046 232.466 463.027 252.346 475.289 270.072C485.407 284.073 491.188 300.738 491.913 317.998C492.227 322.413 491.614 326.845 490.113 331.01C488.612 335.174 486.257 338.978 483.199 342.178L499.886 332.413C502.95 329.217 505.311 325.414 506.819 321.251C508.326 317.088 508.945 312.655 508.637 308.238C507.888 290.974 502.086 274.309 491.95 260.313C479.577 242.431 455.813 222.825 437.421 233.363L420.759 243.122Z" fill="#ACACAC"/>
<path d="M408.672 266.101C408.179 279.252 411.081 292.308 417.099 304.011L417.454 304.789C420.566 311.599 444.79 364.696 449.352 393.595C449.373 393.784 449.437 393.967 449.54 394.127C449.642 394.288 449.78 394.423 449.943 394.522C450.217 394.678 450.491 394.647 450.566 394.298C455.278 370.746 479.67 345.75 482.857 342.551L483.217 342.184C486.277 338.982 488.633 335.176 490.134 331.009C491.634 326.843 492.247 322.408 491.931 317.991C491.18 303.565 487.025 289.522 479.808 277.01C472.59 264.497 462.515 253.87 450.404 245.997C448.721 245.024 446.986 244.143 445.207 243.358C425.769 234.843 410.24 244.553 408.672 266.101Z" fill="#ACACAC"/>
<path d="M440.343 258.104C443.807 258.805 447.128 260.082 450.171 261.882C458.599 267.378 465.615 274.781 470.652 283.491C475.688 292.202 478.604 301.976 479.163 312.023C479.235 315.866 478.506 319.681 477.021 323.226C472.665 333.054 462.14 335.674 449.959 328.641C441.542 323.155 434.538 315.762 429.513 307.062C424.489 298.362 421.587 288.6 421.042 278.569C421.123 264.091 429.158 256.323 440.343 258.104Z" fill="#ACACAC"/>
<path d="M440.343 258.104C443.807 258.805 447.128 260.082 450.171 261.882C458.599 267.378 465.615 274.781 470.652 283.491C475.688 292.202 478.604 301.976 479.163 312.023C479.235 315.866 478.506 319.681 477.021 323.226C473.535 322.529 470.189 321.251 467.125 319.447C458.715 313.937 451.716 306.53 446.692 297.821C441.669 289.111 438.76 279.344 438.201 269.305C438.128 265.463 438.858 261.649 440.343 258.104Z" fill="#ACACAC"/>
<path d="M80.4136 41.4804C79.8192 41.06 79.3487 40.4878 79.051 39.8234C78.7533 39.159 78.6394 38.4267 78.7213 37.7033C80.062 31.5302 82.0259 25.5093 84.5829 19.733L91.8756 23.9641C92.1301 24.2874 97.7989 31.3185 97.7989 35.0956C97.696 37.1409 97.1114 39.1332 96.0928 40.9097C95.0742 42.6863 93.6504 44.1971 91.9373 45.3193C91.2832 45.8114 90.4899 46.0833 89.6715 46.0957C88.853 46.1081 88.0516 45.8603 87.3829 45.3881C87.5136 45.512 87.5755 45.6427 87.7063 45.7115L80.4136 41.4804Z" fill="#ACACAC"/>
<path d="M135.505 45.45C134.808 43.6783 134.631 41.744 134.997 39.8752C135.362 38.0065 136.255 36.2815 137.569 34.9034C140.824 31.9023 144.458 29.3393 148.377 27.2803C150.201 26.1795 151.501 25.5262 151.563 25.4574L158.855 29.6952C156.726 35.8798 154.024 41.8523 150.786 47.5349C149.974 48.572 148.981 49.4531 147.855 50.1354C147.211 50.6547 146.412 50.9435 145.586 50.956C144.759 50.9684 143.952 50.7039 143.293 50.2043C143.406 50.3319 143.538 50.441 143.685 50.5276L136.393 46.2966C136.037 46.0848 135.734 45.7953 135.505 45.45Z" fill="#ACACAC"/>
<path d="M112.691 32.8176C110.868 31.7788 110.414 28.6484 111.784 25.1327C115.1 19.5277 118.913 14.2319 123.177 9.30908L130.469 13.5401C130.783 19.1467 130.39 24.7708 129.299 30.2792C128.326 32.8935 126.517 35.1133 124.153 36.5948C123.282 37.1619 122.262 37.4564 121.223 37.4409C120.66 37.386 120.132 37.1439 119.723 36.7531C119.772 36.8867 119.864 37.0003 119.984 37.0764L112.691 32.8176Z" fill="#ACACAC"/>
<path d="M169.297 68.1126C165.554 73.1999 161.324 77.9098 156.666 82.1751C156.01 82.6668 155.215 82.9379 154.395 82.949C153.576 82.9601 152.773 82.7109 152.104 82.2373C152.235 82.368 152.304 82.4985 152.427 82.5673L145.135 78.398C144.552 77.9665 144.091 77.3924 143.794 76.7309C143.498 76.0694 143.377 75.3431 143.443 74.6213C143.54 72.5615 144.121 70.5535 145.14 68.7605C146.158 66.9675 147.585 65.4399 149.304 64.3014C153.476 63.2331 157.828 63.0757 162.066 63.8403L169.297 68.1126Z" fill="#ACACAC"/>
<path d="M129.64 151.847C130.815 156.878 131.253 162.053 130.94 167.21C127.27 167.171 123.635 166.489 120.2 165.194L113.038 161.066C112.719 160.887 112.433 160.654 112.192 160.378C111.492 158.605 111.315 156.67 111.68 154.799C112.046 152.929 112.94 151.202 114.256 149.824C115.087 148.78 116.104 147.899 117.256 147.224C117.842 146.79 118.534 146.519 119.259 146.44C119.984 146.36 120.717 146.474 121.384 146.77L128.676 151.001C129.061 151.202 129.391 151.492 129.64 151.847Z" fill="#ACACAC"/>
<path d="M21.6111 157.708C19.3676 157.699 17.1279 157.524 14.9101 157.185L7.67916 152.954C11.4187 147.843 15.6493 143.11 20.3106 138.823C20.9135 138.405 21.6141 138.15 22.3443 138.081C23.0745 138.012 23.8098 138.133 24.48 138.431L31.7726 142.662C32.3623 143.087 32.8293 143.66 33.1264 144.323C33.4236 144.986 33.5407 145.716 33.4653 146.439C33.3751 148.487 32.7958 150.484 31.776 152.263C30.7562 154.041 29.3253 155.55 27.6033 156.663C25.7132 157.469 23.6625 157.826 21.6111 157.708Z" fill="#ACACAC"/>
<path d="M96.4976 179.585C97.092 180.006 97.5625 180.578 97.8602 181.242C98.1579 181.907 98.2717 182.639 98.1898 183.362V183.425C96.8458 189.57 94.8819 195.563 92.3283 201.312L85.0977 197.081C82.2741 193.877 80.2257 190.065 79.1118 185.942C79.2271 183.893 79.8237 181.899 80.8528 180.123C81.8819 178.347 83.3148 176.838 85.0356 175.719C85.6324 175.287 86.3336 175.024 87.0667 174.955C87.7998 174.886 88.5382 175.014 89.2049 175.327L96.4976 179.585Z" fill="#ACACAC"/>
<path d="M138.564 85.8205C137.717 101.887 133.081 117.525 125.034 131.456C116.986 145.388 105.756 157.217 92.2621 165.978C79.0458 173.594 67.1987 174.117 58.6676 168.84C58.8603 168.971 58.9911 169.101 59.1837 169.232L51.9599 165.001C43.6215 160.185 38.4822 149.865 38.4134 135.239C39.2594 119.174 43.8949 103.537 51.941 89.6069C59.9871 75.6766 71.2154 63.8478 84.7083 55.0878C97.6012 47.5956 109.324 46.9491 117.732 51.8338L124.962 55.9616C133.287 60.8188 138.495 71.1664 138.564 85.8205Z" fill="#ACACAC"/>
<path d="M47.269 69.2201C46.1135 64.184 45.6985 59.0063 46.0374 53.8504C49.6837 53.8704 53.298 54.5317 56.715 55.8043L63.8771 59.9736C64.2282 60.131 64.5389 60.3661 64.7854 60.6614C65.4692 62.4413 65.6305 64.3796 65.2502 66.248C64.87 68.1164 63.9639 69.8374 62.6388 71.2084C61.8312 72.2492 60.8372 73.131 59.7078 73.809C59.0825 74.2591 58.3478 74.5332 57.5805 74.6022C56.8132 74.6712 56.0416 74.5326 55.3461 74.2012L48.184 70.039C47.8245 69.8339 47.5127 69.5547 47.269 69.2201Z" fill="#ACACAC"/>
<path d="M41.4713 175.61C42.1524 177.38 42.3119 179.309 41.9315 181.167C41.5511 183.025 40.6467 184.735 39.3247 186.095C36.0101 189.167 32.3095 191.794 28.3166 193.911C26.5622 194.95 25.4548 195.534 25.386 195.603L18.0933 191.372C20.2165 185.194 22.8992 179.223 26.1083 173.532C26.9322 172.508 27.9201 171.627 29.0321 170.925C29.6403 170.49 30.3534 170.224 31.0981 170.155C31.8428 170.086 32.5926 170.217 33.2703 170.533L40.4941 174.702C40.8927 174.916 41.2294 175.228 41.4713 175.61Z" fill="#ACACAC"/>
<path d="M17.8415 102.622C17.9034 102.622 19.0727 101.934 20.7721 100.929C24.1637 98.6837 27.9012 97.0105 31.8352 95.9761C32.2662 96.0398 32.6843 96.1718 33.0735 96.3678L39.7812 100.338C39.8808 100.399 39.9901 100.443 40.1045 100.468C42.1272 101.445 42.7122 104.596 41.2812 108.222C40.3264 110.863 38.5148 113.108 36.1351 114.6C35.2654 115.17 34.2439 115.465 33.2041 115.446C32.8083 115.37 32.4316 115.216 32.0963 114.992L31.8352 114.799L24.8037 110.823C22.0639 108.474 19.7142 105.706 17.8415 102.622Z" fill="#ACACAC"/>
<path d="M64.196 188.242C66.0192 189.349 66.5418 192.411 65.1727 195.865C61.8527 201.504 58.0159 206.822 53.7111 211.75L46.4185 207.519C46.1393 201.915 46.534 196.297 47.5947 190.787C48.5888 188.185 50.3932 185.971 52.7411 184.472C53.5992 183.887 54.6298 183.611 55.665 183.687C56.1206 183.687 56.5693 183.798 56.9722 184.01L64.196 188.242Z" fill="#ACACAC"/>
<path d="M159.071 118.377C159.002 118.446 157.901 119.161 156.14 120.138C152.786 122.401 149.06 124.054 145.132 125.023C144.575 124.955 144.053 124.714 143.639 124.335C143.71 124.437 143.799 124.526 143.901 124.597L136.608 120.427C134.785 119.32 134.324 116.258 135.631 112.742C136.644 110.136 138.439 107.908 140.77 106.365C141.662 105.851 142.672 105.581 143.701 105.581C144.12 105.65 144.521 105.804 144.878 106.035L152.17 110.272C154.903 112.573 157.235 115.312 159.071 118.377Z" fill="#ACACAC"/>
<path d="M92.2871 179.964C92.8882 179.528 93.5948 179.261 94.3338 179.19C95.0728 179.118 95.8171 179.246 96.4904 179.558L89.2255 175.341C88.5516 175.03 87.8074 174.904 87.0688 174.975C86.3302 175.047 85.6237 175.313 85.0217 175.747C83.3079 176.868 81.8816 178.376 80.8574 180.149C79.8333 181.923 79.24 183.912 79.1257 185.957C80.2537 190.079 82.2896 193.896 85.0839 197.129L92.3488 201.34C89.5546 198.109 87.5191 194.294 86.3911 190.174C86.5054 188.129 87.0982 186.14 88.1224 184.366C89.1465 182.593 90.5732 181.085 92.2871 179.964Z" fill="#ACACAC"/>
<path d="M92.2871 179.964C95.5413 178.086 98.2112 179.606 98.218 183.342C96.8611 189.52 94.8947 195.549 92.3488 201.34C89.5546 198.109 87.5191 194.294 86.3911 190.174C86.5054 188.129 87.0982 186.14 88.1224 184.366C89.1465 182.593 90.5732 181.085 92.2871 179.964Z" fill="#ACACAC"/>
<path d="M121.461 146.79C120.785 146.482 120.039 146.358 119.3 146.432C118.56 146.506 117.853 146.774 117.251 147.209C116.115 147.892 115.114 148.778 114.299 149.824C112.972 151.188 112.066 152.905 111.687 154.77C111.309 156.635 111.476 158.57 112.166 160.343C112.401 160.642 112.693 160.89 113.026 161.072L120.292 165.283C119.961 165.115 119.668 164.881 119.432 164.595C118.741 162.821 118.575 160.885 118.953 159.019C119.331 157.152 120.238 155.434 121.565 154.069C122.381 153.027 123.381 152.143 124.516 151.461C125.118 151.025 125.824 150.757 126.564 150.682C127.303 150.607 128.05 150.729 128.727 151.035L121.461 146.79Z" fill="#ACACAC"/>
<path d="M124.516 151.427C126.58 150.244 128.548 150.312 129.649 151.86C130.831 156.876 131.26 162.04 130.921 167.182C130.433 167.182 121.07 166.865 119.432 164.561C118.741 162.786 118.575 160.85 118.953 158.984C119.332 157.118 120.238 155.4 121.565 154.034C122.382 152.993 123.382 152.109 124.516 151.427Z" fill="#ACACAC"/>
<path d="M144.89 106.059C144.539 105.835 144.141 105.694 143.727 105.646C142.693 105.597 141.67 105.869 140.796 106.424C138.446 107.938 136.646 110.17 135.664 112.787C134.288 116.289 134.797 119.371 136.627 120.438L143.892 124.648C142.062 123.582 141.574 120.52 142.929 116.998C143.914 114.383 145.713 112.154 148.062 110.641C148.938 110.087 149.963 109.813 150.999 109.856C151.411 109.909 151.806 110.052 152.155 110.276L144.89 106.059Z" fill="#ACACAC"/>
<path d="M148.056 110.642C148.93 110.088 149.952 109.815 150.986 109.857C153.855 110.077 158.809 117.976 159.07 118.389C159.008 118.389 157.866 119.132 156.153 120.115C152.777 122.367 149.043 124.031 145.111 125.035C142.311 124.773 141.306 121.189 142.923 116.999C143.908 114.384 145.707 112.155 148.056 110.642Z" fill="#ACACAC"/>
<path d="M151.59 25.4695C151.521 25.5108 150.214 26.1574 148.384 27.265C144.465 29.325 140.839 31.9005 137.603 34.9226C136.282 36.2951 135.385 38.0192 135.019 39.8885C134.653 41.7579 134.834 43.6931 135.539 45.4625C135.779 45.8121 136.094 46.1037 136.461 46.3158L143.726 50.533C143.362 50.3167 143.048 50.0262 142.804 49.6801C142.099 47.9108 141.918 45.9755 142.284 44.1062C142.65 42.2368 143.547 40.5123 144.868 39.1398C148.104 36.1154 151.729 33.5381 155.649 31.4759C157.513 30.4027 158.786 29.7215 158.855 29.6871L151.59 25.4695Z" fill="#ACACAC"/>
<path d="M155.643 31.4753C157.508 30.4021 158.781 29.7209 158.85 29.6865C156.731 35.8674 154.041 41.8372 150.814 47.519C150.007 48.5574 149.015 49.4388 147.89 50.1196C145.826 51.2892 143.865 51.2275 142.764 49.6795C142.059 47.9102 141.878 45.9749 142.244 44.1056C142.61 42.2362 143.507 40.5117 144.828 39.1392C148.074 36.1123 151.712 33.5349 155.643 31.4753Z" fill="#ACACAC"/>
<path d="M56.9626 184.044C56.577 183.823 56.1469 183.692 55.7037 183.659C54.6623 183.616 53.6326 183.892 52.7521 184.45C50.4025 185.954 48.6079 188.183 47.6405 190.8C46.5346 196.295 46.1343 201.908 46.45 207.505L53.7221 211.722C53.3994 206.126 53.7971 200.512 54.9054 195.018C55.8707 192.4 57.6658 190.169 60.0171 188.667C60.8977 188.11 61.9273 187.834 62.9686 187.876C63.4122 187.907 63.8432 188.038 64.228 188.261L56.9626 184.044Z" fill="#ACACAC"/>
<path d="M60.0123 188.667C60.893 188.11 61.9225 187.834 62.9639 187.876C65.7915 188.11 66.8028 191.701 65.1861 195.884C61.8561 201.501 58.0144 206.798 53.7102 211.708C53.3943 206.112 53.7945 200.499 54.9007 195.004C55.8685 192.391 57.6633 190.166 60.0123 188.667Z" fill="#ACACAC"/>
<path d="M117.733 51.8198C109.298 46.9213 97.6161 47.6091 84.7094 55.0532C71.2138 63.8201 59.984 75.6559 51.938 89.5933C43.8919 103.531 39.258 119.174 38.4146 135.245C38.4559 149.879 43.6157 160.171 51.9472 165.015L59.2126 169.232C50.881 164.416 62.6869 155.156 62.6525 140.516C62.57 111.049 70.6194 82.2013 96.302 67.3751C109.195 59.9311 116.563 51.1317 124.998 56.037L117.733 51.8198Z" fill="#ACACAC"/>
<path d="M91.9773 59.2708C117.625 44.4653 138.457 56.3744 138.54 85.841C137.699 101.9 133.069 117.532 125.029 131.459C116.989 145.386 105.766 157.212 92.2796 165.971C66.597 180.797 45.765 168.929 45.6824 139.456C46.5247 123.385 51.1584 107.743 59.2046 93.8063C67.2508 79.8699 78.481 68.0354 91.9773 59.2708Z" fill="#ACACAC"/>
<path d="M87.6986 45.7232L80.4332 41.5056C79.8362 41.0842 79.3618 40.5121 79.0584 39.8473C78.755 39.1825 78.6336 38.4488 78.7065 37.7217C80.0619 31.5421 82.0302 25.5132 84.582 19.7242L91.8469 23.9346C89.2976 29.7247 87.3295 35.7533 85.9715 41.9322C85.8973 42.6604 86.0182 43.3955 86.3217 44.0616C86.6251 44.7277 87.1005 45.3012 87.6986 45.7232Z" fill="#ACACAC"/>
<path d="M91.8469 23.9346C94.6485 27.162 96.6834 30.9823 97.7984 35.1081C97.6895 37.1541 97.0988 39.1455 96.0742 40.9197C95.0496 42.694 93.62 44.201 91.9024 45.3179C88.6482 47.1961 85.9852 45.6749 85.9715 41.9322C87.3295 35.7533 89.2976 29.7247 91.8469 23.9346Z" fill="#ACACAC"/>
<path d="M56.6905 55.781L63.9555 59.9915C60.5412 58.7576 56.9426 58.1109 53.3123 58.0788L46.0474 53.8616C49.6779 53.8968 53.2764 54.5457 56.6905 55.781Z" fill="#ACACAC"/>
<path d="M55.4703 74.2615L48.205 70.051C47.8409 69.8348 47.5269 69.5439 47.2833 69.1977C46.1092 64.1714 45.6919 58.998 46.0449 53.8485L53.3099 58.0662C52.9573 63.2133 53.3747 68.3842 54.5482 73.4082C54.7882 73.7576 55.1034 74.0492 55.4703 74.2615Z" fill="#ACACAC"/>
<path d="M53.3091 58.0802C53.7975 58.0802 63.1265 58.4176 64.7984 60.7017C65.483 62.4771 65.6461 64.4111 65.2682 66.2761C64.8904 68.141 63.9873 69.8589 62.6656 71.2277C61.8405 72.273 60.8337 73.1613 59.6934 73.8492C57.6295 75.0395 55.6482 74.9706 54.5474 73.4226C53.3738 68.3986 52.9565 63.2273 53.3091 58.0802Z" fill="#ACACAC"/>
<path d="M33.0683 96.3796L40.3337 100.59C39.9521 100.372 39.5264 100.243 39.0882 100.212C35.1667 101.209 31.4442 102.868 28.0806 105.117L20.8152 100.907C24.1802 98.6585 27.9026 96.9976 31.8233 95.9946C32.262 96.0281 32.6873 96.1596 33.0683 96.3796Z" fill="#ACACAC"/>
<path d="M32.1106 115.018L24.8452 110.801C22.0784 108.492 19.7202 105.734 17.8692 102.641L25.1341 106.852C26.9865 109.945 29.3449 112.705 32.1106 115.018Z" fill="#ACACAC"/>
<path d="M25.1341 106.852L17.8692 102.641C17.9311 102.6 19.0732 101.899 20.7863 100.908L28.0513 105.119C26.3382 106.11 25.196 106.818 25.1341 106.852Z" fill="#ACACAC"/>
<path d="M28.0628 105.118C31.4265 102.869 35.1494 101.21 39.0709 100.213C41.8985 100.454 42.8752 104.059 41.2515 108.242C40.2896 110.872 38.4918 113.116 36.1332 114.626C35.2558 115.186 34.2282 115.464 33.1883 115.424C30.3607 115.142 25.3727 107.272 25.1112 106.852C25.1869 106.818 26.3291 106.109 28.0628 105.118Z" fill="#ACACAC"/>
<path d="M156.596 68.579L149.331 64.3618C153.48 63.2541 157.823 63.0847 162.045 63.8663L169.311 68.0839C165.089 67.2991 160.744 67.4681 156.596 68.579Z" fill="#ACACAC"/>
<path d="M152.415 82.5798L145.15 78.3693C144.555 77.9516 144.082 77.3824 143.781 76.7207C143.48 76.0591 143.361 75.3291 143.437 74.606C143.541 72.5551 144.129 70.558 145.153 68.7776C146.176 66.9973 147.606 65.4841 149.326 64.3618L156.591 68.579C154.871 69.7013 153.441 71.2145 152.418 72.9948C151.395 74.7752 150.806 76.7723 150.702 78.8232C150.627 79.5452 150.746 80.2741 151.047 80.9346C151.349 81.595 151.821 82.1631 152.415 82.5798Z" fill="#ACACAC"/>
<path d="M156.591 68.579C160.739 67.468 165.084 67.3 169.305 68.0848C165.548 73.1794 161.304 77.896 156.632 82.1679C153.378 84.0461 150.709 82.5659 150.702 78.8232C150.806 76.7723 151.395 74.7752 152.418 72.9948C153.441 71.2145 154.871 69.7013 156.591 68.579Z" fill="#ACACAC"/>
<path d="M24.503 138.437C23.8342 138.125 23.0942 137.998 22.3597 138.069C21.6253 138.141 20.9232 138.408 20.3269 138.842C15.6455 143.119 11.4006 147.851 7.6543 152.967L14.9193 157.178C18.6679 152.066 22.9131 147.337 27.5923 143.06C28.1886 142.625 28.8902 142.358 29.6247 142.286C30.3591 142.215 31.0995 142.342 31.7683 142.654L24.503 138.437Z" fill="#ACACAC"/>
<path d="M27.5867 143.06C30.8409 141.174 33.4757 142.715 33.4895 146.458C33.3883 148.499 32.8045 150.487 31.7855 152.258C30.7664 154.03 29.3414 155.534 27.6279 156.647C23.4828 157.772 19.138 157.954 14.9137 157.177C18.6624 152.065 22.9076 147.336 27.5867 143.06Z" fill="#ACACAC"/>
<path d="M33.2691 170.512C32.5919 170.206 31.8459 170.084 31.1065 170.159C30.3671 170.234 29.6606 170.503 29.0586 170.939C27.9262 171.621 26.9284 172.504 26.1142 173.546C22.8962 179.223 20.2151 185.189 18.1059 191.365L25.3709 195.575C27.4807 189.402 30.1618 183.438 33.3791 177.763C34.1916 176.718 35.1897 175.832 36.3236 175.149C36.9259 174.714 37.6328 174.445 38.3723 174.372C39.1118 174.298 39.8576 174.421 40.534 174.729L33.2691 170.512Z" fill="#ACACAC"/>
<path d="M36.3129 175.149C38.3768 173.973 40.3512 174.035 41.4451 175.583C42.1374 177.357 42.3045 179.293 41.9263 181.159C41.5481 183.026 40.6407 184.744 39.3123 186.109C36.0062 189.195 32.3047 191.828 28.3047 193.938C26.5847 194.929 25.4427 195.541 25.3808 195.576C27.4906 189.402 30.1716 183.439 33.389 177.763C34.1954 176.72 35.1864 175.835 36.3129 175.149Z" fill="#ACACAC"/>
<path d="M119.985 37.0275L112.72 32.8103C110.89 31.7439 110.429 28.6822 111.784 25.1666C115.096 19.5484 118.924 14.251 123.219 9.34291L130.484 13.5534C126.191 18.4628 122.363 23.76 119.05 29.3771C117.694 32.8721 118.19 35.9611 119.985 37.0275Z" fill="#ACACAC"/>
<path d="M130.491 13.519C130.807 19.1285 130.409 24.7555 129.308 30.2648C128.338 32.8801 126.544 35.1088 124.196 36.6147C123.313 37.173 122.281 37.4493 121.237 37.4063C118.41 37.1655 117.433 33.5601 119.057 29.3771C122.369 23.7481 126.196 18.4392 130.491 13.519Z" fill="#ACACAC"/>
<path d="M337.9 124.277C337.02 140.841 332.239 156.963 323.945 171.328C315.651 185.693 304.079 197.895 290.174 206.939L119.89 305.252C106.309 313.095 94.0282 313.666 85.2839 308.279L52.2605 289.112C43.6538 284.097 38.3216 273.481 38.2941 258.394C39.7725 230.722 51.9911 204.72 72.3497 185.921C70.9035 181.803 70.2046 177.46 70.2858 173.097C70.9635 160.091 74.7082 147.431 81.2141 136.149C87.7199 124.868 96.8021 115.285 107.719 108.185C111.533 105.404 116.02 103.693 120.717 103.229C125.414 102.764 130.149 103.563 134.434 105.543L134.675 105.68C143.199 72.8152 166.322 39.3793 193.539 23.6449C210.911 13.6209 226.624 12.699 238.004 19.3106L270.924 38.4297C281.932 44.4978 289.052 57.5143 289.733 76.0831C292.987 76.4414 296.131 77.47 298.967 79.1036L323.252 93.235C323.5 93.3726 323.713 93.4824 323.94 93.62C332.54 98.6011 337.872 109.217 337.9 124.277Z" fill="#ACACAC"/>
<path d="M337.881 124.305C336.988 140.864 332.198 156.978 323.901 171.336C315.605 185.694 304.035 197.89 290.134 206.933L119.857 305.246C106.304 313.089 94.0574 313.708 85.32 308.273C85.4631 308.411 85.6254 308.526 85.8016 308.617L52.2966 289.079C43.6967 284.125 38.3306 273.461 38.3306 258.394C39.8164 230.713 52.0329 204.701 72.3862 185.88C70.9357 181.771 70.214 177.44 70.2534 173.083C70.9441 160.069 74.7005 147.403 81.2166 136.116C87.7326 124.83 96.8235 115.243 107.748 108.137C111.569 105.38 116.053 103.686 120.743 103.227C125.432 102.767 130.159 103.559 134.442 105.523L134.649 105.66C143.18 72.7746 166.297 39.3384 193.541 23.6523C210.947 13.6076 226.633 12.7132 237.985 19.3179L271.49 38.7192C282.223 44.9799 289.034 57.8453 289.653 76.077C292.927 76.424 296.091 77.4554 298.941 79.1042L323.915 93.6206C323.637 93.4424 323.336 93.3035 323.021 93.2079C332.102 97.8862 337.813 108.757 337.881 124.305Z" fill="#ACACAC"/>
<path d="M298.961 79.0764L323.908 93.5723C315.198 88.5087 303.137 89.2176 289.839 96.8955C289.151 97.2808 288.518 97.6938 287.836 98.1066L262.89 83.6103C263.578 83.1975 264.211 82.7847 264.892 82.3925C278.191 74.749 290.251 74.0472 298.961 79.0764Z" fill="#ACACAC"/>
<path d="M271.545 38.7811C260.193 32.1902 244.452 33.0917 227.08 43.1088C199.829 58.85 176.712 92.3138 168.243 125.2L134.676 105.723C143.173 72.83 166.324 39.3662 193.541 23.6319C210.912 13.6079 226.626 12.6859 238.005 19.2975L271.545 38.7811Z" fill="#ACACAC"/>
<path d="M85.8131 308.605L52.2736 289.107C43.6738 284.112 38.349 273.483 38.3077 258.395C39.7987 230.722 52.0176 204.719 72.3699 185.909L105.909 205.399C85.5636 224.215 73.3461 250.215 71.8471 277.886C71.8953 292.981 77.2201 303.61 85.8131 308.605Z" fill="#ACACAC"/>
<path d="M134.414 105.551L167.96 125.042C163.68 123.063 158.949 122.263 154.256 122.725C149.563 123.187 145.078 124.894 141.266 127.67C130.347 134.769 121.262 144.351 114.753 155.632C108.245 166.914 104.498 179.575 103.819 192.582C103.748 196.943 104.447 201.281 105.883 205.399L72.3436 185.908C70.9046 181.791 70.2059 177.452 70.2797 173.091C70.9609 160.085 74.7079 147.424 81.2147 136.142C87.7215 124.859 96.8037 115.276 107.72 108.172C111.533 105.398 116.018 103.692 120.711 103.231C125.404 102.77 130.134 103.571 134.414 105.551Z" fill="#ACACAC"/>
<path d="M227.088 43.1235C261.577 23.1718 289.694 39.2361 289.784 78.8986C289.769 85.3682 289.116 91.8209 287.837 98.1626C288.525 97.7499 289.158 97.3369 289.839 96.9516C316.258 81.692 337.799 93.9657 337.888 124.313C337.007 140.878 332.223 157.001 323.927 171.366C315.63 185.732 304.056 197.933 290.148 206.975L119.878 305.282C93.3975 320.569 71.9323 308.274 71.8429 277.907C73.3418 250.235 85.5593 224.235 105.905 205.42C104.469 201.302 103.77 196.963 103.841 192.603C104.52 179.596 108.267 166.935 114.775 155.653C121.284 144.372 130.369 134.79 141.288 127.691C151.856 121.589 161.412 121.093 168.251 125.228C176.713 92.3145 199.829 58.8578 227.088 43.1235Z" fill="#ACACAC"/>
<path d="M184.023 201.341C177.83 201.506 171.957 204.122 167.69 208.613C163.423 213.104 161.112 219.104 161.264 225.297C161.416 219.104 159.105 213.104 154.838 208.613C150.571 204.122 144.698 201.506 138.505 201.341C144.698 201.175 150.571 198.56 154.838 194.069C159.105 189.578 161.416 183.578 161.264 177.385C161.112 183.578 163.423 189.578 167.69 194.069C171.957 198.56 177.83 201.175 184.023 201.341Z" fill="#ACACAC"/>
<path d="M207.127 405.434L256.982 413.525L303.787 462.758L365.032 476.638L507.314 393.982V379.355L446.692 365.538L399.638 316.056L349.409 307.903L207.189 390.558L207.127 405.434Z" fill="#C8C7E0"/>
<path d="M257.362 398.706L399.613 316.038L349.429 307.903L207.177 390.571L257.362 398.706Z" fill="#F3F1FC"/>
<path d="M272.73 352.467L322.896 360.621L345.489 347.488L333.85 345.621L388 314.127L361.112 309.77L306.9 341.264L295.261 339.397L272.73 352.467Z" fill="#FFD06C"/>
<path d="M299.007 368.662L264.526 363.061L226.907 384.926L261.389 390.528L299.007 368.662Z" fill="#C8C7E0"/>
<path d="M304.463 448.219L446.715 365.551L399.611 316.038L257.359 398.707L304.463 448.219Z" fill="#E9E7FC"/>
<path d="M369.996 410.134L392.559 397.02L345.455 347.507L322.892 360.615L369.996 410.134Z" fill="#FEBC1F"/>
<path d="M365.086 462.049L507.338 379.381L446.709 365.551L304.457 448.219L365.086 462.049Z" fill="#F3F1FC"/>
<path d="M493.751 381.453L447.55 370.916L411.612 391.804L457.813 402.341L493.751 381.453Z" fill="#72D561"/>
<path d="M322.518 452.364L347.04 457.965L412.58 419.874L430.63 423.982L453.161 410.849L392.539 397.031L370.007 410.102L388.057 414.21L322.518 452.364Z" fill="#FFD06C"/>
<path d="M365.05 476.63L507.301 393.962L507.345 379.379L365.093 462.047L365.05 476.63Z" fill="#E9E7FC"/>
<path d="M257.364 398.706L207.179 390.571L207.135 405.416L257.003 413.55L303.814 462.721L365.053 476.607L365.097 462.024L304.468 448.194L257.364 398.706Z" fill="#C8C7E0"/>
<path d="M227.105 269.65C226.383 269.885 225.681 270.172 225.001 270.509L237.842 262.996C252.057 254.855 270.369 270.092 279.811 283.741C287.609 294.512 292.073 307.334 292.651 320.619C292.888 324.019 292.411 327.431 291.252 330.636C290.092 333.841 288.274 336.768 285.916 339.229C275.815 349.543 263.603 365.19 260.802 379.35C260.767 379.424 260.716 379.49 260.653 379.543L247.813 387.055C247.844 387.055 247.85 386.962 247.868 386.918C247.85 386.954 247.824 386.984 247.792 387.008C247.76 387.032 247.723 387.049 247.683 387.058C247.644 387.066 247.604 387.066 247.565 387.057C247.526 387.048 247.489 387.03 247.458 387.005C247.333 386.928 247.227 386.825 247.148 386.702C247.068 386.579 247.017 386.441 246.997 386.296C243.487 364.051 224.858 323.196 222.456 317.949L222.182 317.327C214.445 301.343 210.816 276.198 227.105 269.65Z" fill="#B28AFD"/>
<path d="M247.898 386.812C247.903 386.857 247.896 386.903 247.879 386.945C247.862 386.988 247.834 387.025 247.799 387.055L260.639 379.542C260.702 379.489 260.753 379.423 260.789 379.349C264.374 361.225 283.195 341.942 285.647 339.515L272.757 347.028C270.355 349.449 251.558 368.687 247.898 386.812Z" fill="#B28AFD"/>
<path d="M224.998 270.534C227.917 269.057 231.147 268.3 234.418 268.326C237.689 268.352 240.906 269.16 243.801 270.684C253.267 275.291 261.28 282.417 266.961 291.279C274.75 302.051 279.2 314.875 279.758 328.156C280.004 331.553 279.535 334.963 278.383 338.167C277.231 341.371 275.419 344.299 273.067 346.76L285.914 339.254C288.272 336.793 290.089 333.866 291.249 330.661C292.408 327.456 292.885 324.044 292.648 320.644C292.07 307.36 287.606 294.537 279.808 283.766C274.084 274.971 266.099 267.876 256.691 263.227C253.791 261.696 250.568 260.88 247.288 260.846C244.009 260.813 240.77 261.563 237.839 263.034L224.998 270.534Z" fill="#B28AFD"/>
<path d="M215.706 288.179C215.322 298.299 217.556 308.347 222.191 317.352L222.465 317.974C224.867 323.221 243.496 364.076 247.006 386.321C247.027 386.466 247.079 386.605 247.158 386.729C247.238 386.853 247.343 386.958 247.467 387.036C247.673 387.155 247.884 387.13 247.94 386.862C251.569 368.737 270.347 349.474 272.793 347.028L273.073 346.748C275.428 344.283 277.241 341.353 278.395 338.146C279.55 334.939 280.02 331.526 279.776 328.126C279.839 306.198 263.301 279.235 243.82 270.696C228.857 264.123 216.907 271.592 215.706 288.179Z" fill="#7E5AF2"/>
<path d="M240.38 283.187C255.218 285.945 269.011 306.77 269.011 323.022C269.063 325.853 268.525 328.663 267.43 331.275C264.225 338.532 256.438 340.474 247.451 335.27C241.237 331.221 236.066 325.763 232.357 319.34C228.647 312.918 226.505 305.712 226.102 298.306C226.183 287.606 232.127 281.874 240.38 283.187Z" fill="#B28AFD"/>
<path d="M240.382 283.188C242.94 283.704 245.393 284.646 247.639 285.976C253.863 290.032 259.045 295.498 262.764 301.93C266.482 308.362 268.634 315.579 269.043 322.997C269.095 325.828 268.557 328.639 267.463 331.25C264.888 330.735 262.419 329.793 260.156 328.462C253.947 324.393 248.781 318.924 245.072 312.493C241.364 306.063 239.218 298.852 238.807 291.441C238.756 288.611 239.292 285.801 240.382 283.188Z" fill="white"/>
<path d="M401.009 256.791C400.937 252.06 402.117 247.394 404.432 243.268C406.746 239.141 410.111 235.7 414.186 233.295C413.818 233.475 413.439 233.631 413.09 233.836L429.777 224.071C433.585 222.161 437.794 221.188 442.054 221.232C446.314 221.277 450.501 222.337 454.269 224.326C456.041 225.106 457.766 225.989 459.434 226.971C469.378 233.089 477.873 241.295 484.331 251.021C494.466 265.017 500.269 281.682 501.018 298.946C501.326 303.363 500.706 307.796 499.199 311.959C497.692 316.123 495.331 319.925 492.267 323.121C492.889 323.121 492.889 323.121 492.267 323.121L491.906 323.488C492.559 323.724 492.591 323.731 491.937 323.488C488.725 326.637 464.296 351.702 459.634 375.248C459.587 375.343 459.524 375.43 459.447 375.503L442.76 385.262C442.798 385.225 442.804 385.138 442.829 385.082C442.805 385.129 442.771 385.169 442.73 385.201C442.688 385.234 442.64 385.256 442.589 385.267C442.538 385.279 442.485 385.278 442.434 385.267C442.383 385.255 442.335 385.232 442.294 385.2C442.131 385.101 441.992 384.966 441.89 384.805C441.787 384.644 441.723 384.462 441.702 384.273C437.14 355.374 412.928 302.276 409.804 295.467L409.449 294.689C403.429 282.99 400.523 269.939 401.009 256.791Z" fill="#DF3260"/>
<path d="M475.206 333.242L491.905 323.495L492.267 323.128L475.567 332.875L475.206 333.242Z" fill="#F25A5A"/>
<path d="M442.887 384.959C442.893 385.018 442.885 385.077 442.863 385.133C442.842 385.188 442.807 385.237 442.762 385.276L459.449 375.516C459.527 375.444 459.59 375.358 459.635 375.261C464.297 351.716 488.727 326.651 491.938 323.502L475.19 333.261C472.04 336.41 447.611 361.407 442.887 384.959Z" fill="#F45170"/>
<path d="M413.102 233.813C431.388 223.157 455.37 243.037 467.631 260.763C477.75 274.764 483.531 291.429 484.256 308.689C484.569 313.104 483.956 317.536 482.456 321.701C480.955 325.865 478.6 329.669 475.542 332.869L492.229 323.104C495.293 319.908 497.654 316.105 499.161 311.942C500.668 307.779 501.288 303.346 500.98 298.929C500.231 281.665 494.429 265 484.293 251.004C471.92 233.122 448.156 213.516 429.764 224.054L413.102 233.813Z" fill="#F45170"/>
<path d="M401.013 256.791C400.521 269.942 403.423 282.998 409.441 294.702L409.795 295.48C412.907 302.289 437.132 355.387 441.694 384.285C441.715 384.475 441.779 384.657 441.881 384.818C441.984 384.979 442.122 385.114 442.285 385.213C442.559 385.369 442.833 385.337 442.908 384.989C447.619 361.437 472.011 336.441 475.198 333.242L475.559 332.875C478.619 329.673 480.975 325.866 482.475 321.7C483.976 317.533 484.588 313.099 484.273 308.681C483.521 294.256 479.367 280.213 472.149 267.7C464.932 255.188 454.857 244.56 442.746 236.687C441.062 235.714 439.327 234.833 437.548 234.048C418.111 225.534 402.582 235.244 401.013 256.791Z" fill="#DF3260"/>
<path d="M432.688 248.795C436.152 249.497 439.474 250.774 442.516 252.573C450.944 258.069 457.96 265.472 462.997 274.183C468.034 282.893 470.949 292.668 471.508 302.714C471.581 306.557 470.851 310.372 469.367 313.917C465.01 323.745 454.485 326.366 442.304 319.332C433.888 313.846 426.883 306.453 421.859 297.753C416.834 289.053 413.932 279.291 413.387 269.26C413.468 254.782 421.503 247.015 432.688 248.795Z" fill="#F45170"/>
<path d="M432.688 248.793C436.152 249.495 439.474 250.772 442.516 252.571C450.944 258.067 457.96 265.47 462.997 274.181C468.034 282.891 470.949 292.666 471.508 302.712C471.581 306.555 470.851 310.37 469.367 313.915C465.88 313.219 462.534 311.941 459.47 310.137C451.06 304.628 444.061 297.22 439.038 288.511C434.014 279.802 431.105 270.035 430.547 259.996C430.474 256.153 431.203 252.338 432.688 248.793Z" fill="white"/>
<path d="M72.7581 32.1712C72.1637 31.7509 71.6932 31.1787 71.3955 30.5143C71.0978 29.8498 70.984 29.1175 71.0658 28.3941C72.4065 22.2211 74.3704 16.2001 76.9274 10.4238L84.2201 14.6549C84.4747 14.9782 90.1434 22.0094 90.1434 25.7864C90.0405 27.8317 89.4559 29.824 88.4373 31.6006C87.4187 33.3772 85.9949 34.888 84.2818 36.0101C83.6277 36.5022 82.8345 36.7742 82.016 36.7865C81.1975 36.7989 80.3961 36.5511 79.7274 36.079C79.8582 36.2028 79.9201 36.3335 80.0508 36.4023L72.7581 32.1712Z" fill="#FEBC1F"/>
<path d="M127.851 36.141C127.153 34.3692 126.976 32.435 127.342 30.5662C127.708 28.6975 128.6 26.9725 129.914 25.5944C133.17 22.5933 136.803 20.0303 140.723 17.9713C142.546 16.8705 143.846 16.2172 143.908 16.1484L151.201 20.3862C149.071 26.5708 146.37 32.5433 143.131 38.2259C142.319 39.263 141.326 40.1441 140.2 40.8264C139.556 41.3457 138.758 41.6345 137.931 41.647C137.104 41.6594 136.297 41.3949 135.638 40.8953C135.751 41.0229 135.884 41.132 136.031 41.2186L128.738 36.9876C128.382 36.7758 128.079 36.4863 127.851 36.141Z" fill="#FEBC1F"/>
<path d="M105.036 23.5085C103.213 22.4697 102.759 19.3393 104.128 15.8237C107.444 10.2186 111.257 4.9228 115.521 0L122.814 4.23107C123.128 9.83763 122.735 15.4617 121.644 20.9701C120.671 23.5844 118.862 25.8042 116.498 27.2857C115.627 27.8528 114.607 28.1473 113.567 28.1318C113.005 28.0769 112.476 27.8348 112.067 27.444C112.117 27.5776 112.208 27.6912 112.329 27.7673L105.036 23.5085Z" fill="#FEBC1F"/>
<path d="M161.642 58.8033C157.9 63.8906 153.669 68.6005 149.011 72.8658C148.355 73.3575 147.56 73.6286 146.741 73.6397C145.921 73.6509 145.119 73.4017 144.449 72.928C144.58 73.0587 144.649 73.1892 144.773 73.258L137.48 69.0887C136.898 68.6572 136.436 68.0831 136.14 67.4216C135.843 66.7601 135.722 66.0339 135.788 65.312C135.885 63.2522 136.467 61.2442 137.485 59.4512C138.504 57.6582 139.93 56.1306 141.649 54.9921C145.821 53.9238 150.174 53.7665 154.412 54.5311L161.642 58.8033Z" fill="#FEBC1F"/>
<path d="M121.986 142.538C123.161 147.569 123.599 152.744 123.286 157.901C119.615 157.862 115.981 157.18 112.546 155.885L105.384 151.758C105.065 151.579 104.778 151.346 104.538 151.069C103.838 149.297 103.661 147.361 104.026 145.491C104.392 143.621 105.286 141.894 106.602 140.516C107.433 139.472 108.45 138.59 109.601 137.915C110.188 137.481 110.879 137.211 111.604 137.131C112.33 137.051 113.063 137.165 113.73 137.461L121.022 141.692C121.406 141.893 121.737 142.183 121.986 142.538Z" fill="#FEBC1F"/>
<path d="M13.9554 148.399C11.7119 148.39 9.47214 148.216 7.25438 147.877L0.0234375 143.646C3.76296 138.534 7.9936 133.801 12.6549 129.514C13.2577 129.096 13.9584 128.841 14.6886 128.772C15.4188 128.704 16.1541 128.824 16.8242 129.122L24.1169 133.353C24.7065 133.778 25.1735 134.351 25.4707 135.014C25.7679 135.677 25.8849 136.407 25.8096 137.13C25.7194 139.178 25.14 141.175 24.1203 142.954C23.1005 144.733 21.6696 146.241 19.9476 147.354C18.0575 148.16 16.0068 148.518 13.9554 148.399Z" fill="#FEBC1F"/>
<path d="M88.8418 170.276C89.4362 170.697 89.9067 171.269 90.2044 171.933C90.5021 172.598 90.616 173.33 90.5341 174.053V174.116C89.19 180.261 87.2261 186.254 84.6725 192.003L77.4419 187.772C74.6183 184.568 72.5699 180.756 71.4561 176.633C71.5713 174.584 72.1679 172.59 73.197 170.814C74.2261 169.038 75.659 167.529 77.3798 166.41C77.9766 165.978 78.6778 165.715 79.4109 165.646C80.144 165.577 80.8824 165.705 81.5491 166.018L88.8418 170.276Z" fill="#FEBC1F"/>
<path d="M130.909 76.5112C130.063 92.5776 125.426 108.215 117.379 122.147C109.332 136.078 98.1017 147.908 84.6075 156.669C71.3912 164.285 59.544 164.807 51.013 159.531C51.2056 159.661 51.3364 159.792 51.5291 159.923L44.3053 155.692C35.9668 150.876 30.8276 140.556 30.7588 125.929C31.6047 109.865 36.2402 94.2279 44.2864 80.2976C52.3325 66.3673 63.5608 54.5385 77.0536 45.7785C89.9465 38.2863 101.67 37.6398 110.077 42.5246L117.308 46.6523C125.632 51.5095 130.841 61.8571 130.909 76.5112Z" fill="#FEBC1F"/>
<path d="M39.6126 59.9108C38.4571 54.8746 38.0421 49.6969 38.381 44.541C42.0273 44.561 45.6416 45.2223 49.0586 46.4949L56.2207 50.6642C56.5718 50.8216 56.8825 51.0567 57.129 51.352C57.8128 53.1319 57.9741 55.0702 57.5938 56.9386C57.2136 58.807 56.3075 60.528 54.9824 61.8991C54.1748 62.9398 53.1808 63.8216 52.0514 64.4996C51.4261 64.9497 50.6914 65.2238 49.9241 65.2928C49.1567 65.3618 48.3852 65.2232 47.6897 64.8918L40.5276 60.7296C40.1681 60.5245 39.8563 60.2453 39.6126 59.9108Z" fill="#FEBC1F"/>
<path d="M33.8154 166.301C34.4966 168.071 34.6561 169.999 34.2757 171.857C33.8953 173.716 32.9908 175.426 31.6688 176.786C28.3542 179.858 24.6536 182.485 20.6608 184.601C18.9064 185.64 17.799 186.225 17.7302 186.294L10.4375 182.063C12.5607 175.885 15.2434 169.913 18.4524 164.223C19.2764 163.198 20.2643 162.317 21.3763 161.616C21.9845 161.18 22.6976 160.914 23.4423 160.846C24.187 160.777 24.9368 160.907 25.6145 161.223L32.8383 165.393C33.2368 165.606 33.5735 165.919 33.8154 166.301Z" fill="#FEBC1F"/>
<path d="M10.1855 93.3123C10.2475 93.3123 11.4168 92.6245 13.1161 91.6201C16.5077 89.3744 20.2453 87.7012 24.1792 86.6667C24.6103 86.7305 25.0284 86.8625 25.4176 87.0585L32.1253 91.0284C32.2249 91.09 32.3342 91.1341 32.4486 91.159C34.4713 92.1359 35.0562 95.287 33.6252 98.9127C32.6705 101.554 30.8588 103.799 28.4792 105.29C27.6095 105.861 26.5879 106.155 25.5481 106.137C25.1523 106.061 24.7756 105.906 24.4404 105.683L24.1792 105.49L17.1477 101.513C14.408 99.1649 12.0583 96.3968 10.1855 93.3123Z" fill="#FEBC1F"/>
<path d="M56.5401 178.933C58.3633 180.04 58.886 183.102 57.5169 186.556C54.1968 192.195 50.36 197.513 46.0553 202.441L38.7626 198.21C38.4834 192.606 38.8781 186.988 39.9388 181.478C40.9329 178.876 42.7373 176.662 45.0853 175.163C45.9434 174.578 46.9739 174.302 48.0091 174.378C48.4647 174.378 48.9134 174.489 49.3163 174.701L56.5401 178.933Z" fill="#FEBC1F"/>
<path d="M151.417 109.068C151.348 109.137 150.247 109.852 148.486 110.829C145.132 113.092 141.406 114.745 137.478 115.714C136.921 115.646 136.399 115.405 135.985 115.026C136.056 115.128 136.145 115.217 136.247 115.288L128.954 111.118C127.131 110.011 126.67 106.949 127.977 103.433C128.99 100.827 130.785 98.5994 133.116 97.0557C134.008 96.5419 135.018 96.2717 136.047 96.2717C136.466 96.3406 136.867 96.495 137.224 96.7257L144.516 100.963C147.25 103.264 149.581 106.003 151.417 109.068Z" fill="#FEBC1F"/>
<path d="M84.6321 170.655C85.2332 170.219 85.9398 169.952 86.6788 169.881C87.4178 169.81 88.1621 169.937 88.8355 170.25L81.5705 166.032C80.8966 165.721 80.1524 165.595 79.4138 165.667C78.6753 165.738 77.9687 166.004 77.3667 166.438C75.6529 167.559 74.2266 169.067 73.2024 170.84C72.1783 172.614 71.585 174.603 71.4707 176.648C72.5987 180.77 74.6346 184.587 77.4289 187.821L84.6938 192.031C81.8996 188.8 79.8641 184.985 78.7361 180.865C78.8504 178.82 79.4432 176.831 80.4674 175.058C81.4915 173.284 82.9183 171.776 84.6321 170.655Z" fill="#FFDE9B"/>
<path d="M84.6333 170.655C87.8875 168.777 90.5569 170.297 90.5638 174.033C89.2069 180.212 87.2409 186.24 84.6951 192.031C81.9009 188.8 79.8654 184.985 78.7373 180.865C78.8516 178.82 79.4445 176.831 80.4686 175.057C81.4928 173.284 82.9195 171.776 84.6333 170.655Z" fill="#FEBC1F"/>
<path d="M113.808 137.481C113.131 137.173 112.385 137.05 111.646 137.123C110.906 137.197 110.2 137.465 109.597 137.901C108.461 138.583 107.46 139.47 106.646 140.515C105.319 141.879 104.412 143.596 104.034 145.461C103.656 147.326 103.822 149.261 104.513 151.034C104.747 151.333 105.04 151.582 105.373 151.764L112.638 155.974C112.307 155.807 112.014 155.572 111.778 155.286C111.088 153.512 110.921 151.576 111.3 149.71C111.678 147.844 112.584 146.126 113.911 144.76C114.728 143.718 115.728 142.834 116.862 142.152C117.464 141.716 118.171 141.448 118.91 141.373C119.649 141.298 120.396 141.42 121.073 141.726L113.808 137.481Z" fill="#FFDE9B"/>
<path d="M116.861 142.118C118.925 140.935 120.893 141.004 121.994 142.552C123.176 147.567 123.605 152.731 123.266 157.873C122.778 157.873 113.415 157.557 111.777 155.252C111.086 153.477 110.92 151.542 111.298 149.675C111.677 147.809 112.583 146.091 113.91 144.725C114.727 143.684 115.727 142.8 116.861 142.118Z" fill="#FEBC1F"/>
<path d="M137.235 96.7495C136.884 96.5256 136.486 96.3845 136.072 96.3367C135.038 96.2877 134.015 96.5595 133.141 97.1144C130.791 98.629 128.991 100.86 128.009 103.478C126.633 106.98 127.142 110.062 128.972 111.129L136.237 115.339C134.407 114.273 133.919 111.211 135.274 107.689C136.259 105.074 138.058 102.845 140.406 101.332C141.283 100.777 142.308 100.504 143.344 100.547C143.756 100.599 144.151 100.743 144.5 100.967L137.235 96.7495Z" fill="#FFDE9B"/>
<path d="M140.402 101.332C141.276 100.779 142.298 100.505 143.332 100.548C146.201 100.768 151.155 108.666 151.416 109.079C151.354 109.079 150.213 109.822 148.499 110.806C145.123 113.058 141.389 114.721 137.457 115.725C134.657 115.464 133.652 111.879 135.269 107.689C136.254 105.075 138.053 102.846 140.402 101.332Z" fill="#FEBC1F"/>
<path d="M143.935 16.1604C143.867 16.2017 142.559 16.8483 140.729 17.956C136.81 20.0159 133.184 22.5915 129.948 25.6135C128.628 26.986 127.73 28.7101 127.364 30.5794C126.998 32.4488 127.179 34.3841 127.885 36.1534C128.124 36.503 128.439 36.7946 128.806 37.0067L136.072 41.2239C135.708 41.0076 135.393 40.7171 135.15 40.371C134.444 38.6017 134.263 36.6664 134.629 34.7971C134.995 32.9277 135.893 31.2032 137.213 29.8307C140.449 26.8063 144.075 24.229 147.994 22.1669C149.859 21.0936 151.132 20.4124 151.2 20.378L143.935 16.1604Z" fill="#FFDE9B"/>
<path d="M147.988 22.1668C149.853 21.0935 151.126 20.4123 151.194 20.3779C149.075 26.5588 146.386 32.5287 143.159 38.2105C142.352 39.2489 141.36 40.1303 140.235 40.811C138.171 41.9806 136.21 41.9189 135.109 40.3709C134.404 38.6016 134.223 36.6663 134.589 34.797C134.955 32.9276 135.852 31.2031 137.173 29.8306C140.419 26.8037 144.057 24.2263 147.988 22.1668Z" fill="#FEBC1F"/>
<path d="M49.3065 174.735C48.9209 174.514 48.4908 174.382 48.0476 174.349C47.0062 174.307 45.9765 174.583 45.096 175.141C42.7465 176.645 40.9519 178.874 39.9844 181.491C38.8785 186.985 38.4783 192.599 38.794 198.195L46.0661 202.412C45.7433 196.817 46.141 191.203 47.2494 185.708C48.2146 183.09 50.0097 180.86 52.361 179.358C53.2417 178.801 54.2713 178.525 55.3126 178.567C55.7562 178.597 56.1872 178.729 56.5719 178.952L49.3065 174.735Z" fill="#FFDE9B"/>
<path d="M52.3559 179.358C53.2366 178.801 54.2662 178.525 55.3075 178.567C58.1351 178.801 59.1465 182.392 57.5297 186.575C54.1998 192.191 50.358 197.488 46.0538 202.399C45.7379 196.802 46.1382 191.189 47.2443 185.694C48.2121 183.082 50.007 180.856 52.3559 179.358Z" fill="#FEBC1F"/>
<path d="M110.079 42.5107C101.644 37.6123 89.9622 38.3 77.0556 45.7441C63.56 54.511 52.3302 66.3468 44.2841 80.2842C36.2381 94.2216 31.6041 109.865 30.7607 125.936C30.802 140.57 35.9618 150.862 44.2934 155.706L51.5587 159.923C43.2272 155.107 55.0331 145.847 54.9987 131.206C54.9161 101.74 62.9655 72.8923 88.6482 58.0661C101.541 50.622 108.909 41.8226 117.344 46.728L110.079 42.5107Z" fill="#FFDE9B"/>
<path d="M84.3231 49.9617C109.971 35.1561 130.803 47.0652 130.886 76.5318C130.045 92.591 125.415 108.223 117.375 122.15C109.335 136.077 98.1123 147.903 84.6255 156.662C58.9428 171.488 38.1109 159.62 38.0283 130.147C38.8706 114.076 43.5042 98.4336 51.5504 84.4972C59.5966 70.5607 70.8269 58.7263 84.3231 49.9617Z" fill="#FEBC1F"/>
<path d="M80.0449 36.4141L72.7795 32.1965C72.1825 31.775 71.7081 31.203 71.4047 30.5382C71.1013 29.8734 70.9799 29.1397 71.0528 28.4126C72.4082 22.233 74.3765 16.2041 76.9283 10.415L84.1932 14.6255C81.6439 20.4156 79.6758 26.4442 78.3178 32.6231C78.2436 33.3513 78.3645 34.0864 78.668 34.7525C78.9714 35.4186 79.4468 35.9921 80.0449 36.4141Z" fill="#FFDE9B"/>
<path d="M84.1938 14.6265C86.9954 17.8539 89.0299 21.6734 90.1449 25.7991C90.0359 27.8451 89.4453 29.8365 88.4207 31.6108C87.3961 33.385 85.9665 34.892 84.2488 36.009C80.9946 37.8872 78.3321 36.3667 78.3184 32.624C79.6764 26.4451 81.6445 20.4165 84.1938 14.6265Z" fill="#FEBC1F"/>
<path d="M49.0358 46.4717L56.3007 50.6822C52.8864 49.4483 49.2878 48.8015 45.6575 48.7695L38.3926 44.5522C42.0232 44.5874 45.6216 45.2363 49.0358 46.4717Z" fill="#FFDE9B"/>
<path d="M47.8145 64.9525L40.5491 60.742C40.1851 60.5259 39.8711 60.235 39.6274 59.8887C38.4534 54.8625 38.0361 49.689 38.3891 44.5396L45.654 48.7572C45.3015 53.9044 45.7188 59.0752 46.8924 64.0992C47.1323 64.4486 47.4475 64.7402 47.8145 64.9525Z" fill="#FFD06C"/>
<path d="M45.6525 48.771C46.141 48.771 55.47 49.1084 57.1418 51.3925C57.8265 53.1679 57.9895 55.102 57.6117 56.9669C57.2338 58.8318 56.3308 60.5497 55.009 61.9185C54.184 62.9638 53.1771 63.8521 52.0369 64.5401C49.9729 65.7303 47.9916 65.6614 46.8908 64.1134C45.7173 59.0894 45.2999 53.9182 45.6525 48.771Z" fill="#FEBC1F"/>
<path d="M25.4123 87.0706L32.6777 91.2811C32.2961 91.0635 31.8704 90.9342 31.4322 90.9028C27.5107 91.9001 23.7882 93.5591 20.4246 95.8082L13.1592 91.5977C16.5242 89.3495 20.2466 87.6886 24.1673 86.6855C24.606 86.7191 25.0313 86.8506 25.4123 87.0706Z" fill="#FFDE9B"/>
<path d="M24.4553 105.709L17.1899 101.491C14.4231 99.1823 12.0649 96.4241 10.2139 93.332L17.4788 97.5425C19.3312 100.636 21.6896 103.396 24.4553 105.709Z" fill="#FFD06C"/>
<path d="M17.4788 97.5434L10.2139 93.333C10.2758 93.2917 11.4179 92.5898 13.131 91.5991L20.396 95.8096C18.6829 96.8003 17.5407 97.509 17.4788 97.5434Z" fill="#FFDE9B"/>
<path d="M20.4047 95.8095C23.7684 93.5604 27.4913 91.9014 31.4128 90.9041C34.2404 91.1448 35.2171 94.7499 33.5934 98.9328C32.6315 101.564 30.8337 103.807 28.4751 105.318C27.5976 105.877 26.5701 106.155 25.5302 106.115C22.7026 105.833 17.7146 97.963 17.4531 97.5433C17.5288 97.5089 18.671 96.8002 20.4047 95.8095Z" fill="#FEBC1F"/>
<path d="M148.94 59.2706L141.675 55.0534C145.823 53.9456 150.166 53.7763 154.389 54.5579L161.654 58.7755C157.432 57.9906 153.088 58.1596 148.94 59.2706Z" fill="#FFDE9B"/>
<path d="M144.759 73.2715L137.494 69.061C136.899 68.6432 136.426 68.074 136.125 67.4124C135.824 66.7508 135.705 66.0207 135.781 65.2977C135.885 63.2468 136.473 61.2496 137.497 59.4693C138.52 57.6889 139.95 56.1758 141.67 55.0535L148.935 59.2707C147.215 60.393 145.786 61.9062 144.762 63.6865C143.739 65.4669 143.15 67.464 143.046 69.5149C142.971 70.2369 143.09 70.9658 143.391 71.6263C143.693 72.2867 144.165 72.8548 144.759 73.2715Z" fill="#FFDE9B"/>
<path d="M148.935 59.2713C153.083 58.1603 157.427 57.9914 161.649 58.7762C157.892 63.8708 153.648 68.5874 148.976 72.8593C145.722 74.7375 143.053 73.2582 143.046 69.5155C143.15 67.4646 143.739 65.4675 144.762 63.6871C145.786 61.9068 147.215 60.3936 148.935 59.2713Z" fill="#FEBC1F"/>
<path d="M16.8487 129.128C16.1799 128.816 15.4399 128.689 14.7054 128.76C13.971 128.832 13.2689 129.099 12.6726 129.533C7.99125 133.81 3.7463 138.542 0 143.658L7.26495 147.869C11.0136 142.757 15.2588 138.028 19.938 133.751C20.5343 133.316 21.2359 133.049 21.9704 132.978C22.7048 132.906 23.4452 133.033 24.1141 133.345L16.8487 129.128Z" fill="#FFDE9B"/>
<path d="M19.9328 133.751C23.187 131.866 25.8218 133.407 25.8356 137.149C25.7344 139.19 25.1506 141.178 24.1315 142.95C23.1125 144.721 21.6875 146.225 19.974 147.338C15.8289 148.464 11.4841 148.645 7.25977 147.868C11.0085 142.756 15.2536 138.028 19.9328 133.751Z" fill="#FEBC1F"/>
<path d="M25.6153 161.203C24.9381 160.897 24.1921 160.775 23.4527 160.85C22.7133 160.925 22.0068 161.194 21.4048 161.63C20.2724 162.312 19.2746 163.196 18.4604 164.237C15.2424 169.915 12.5613 175.88 10.4521 182.056L17.7171 186.267C19.8269 180.093 22.508 174.13 25.7253 168.454C26.5378 167.409 27.5359 166.523 28.6698 165.84C29.2721 165.405 29.979 165.137 30.7185 165.063C31.458 164.989 32.2038 165.113 32.8802 165.42L25.6153 161.203Z" fill="#FFDE9B"/>
<path d="M28.6596 165.841C30.7236 164.664 32.6979 164.726 33.7918 166.274C34.4842 168.048 34.6512 169.984 34.273 171.851C33.8948 173.717 32.9874 175.435 31.6591 176.8C28.353 179.886 24.6514 182.519 20.6514 184.629C18.9314 185.62 17.7895 186.233 17.7275 186.267C19.8374 180.094 22.5184 174.13 25.7357 168.455C26.5421 167.412 27.5331 166.526 28.6596 165.841Z" fill="#FEBC1F"/>
<path d="M112.33 27.7183L105.065 23.5011C103.235 22.4347 102.774 19.373 104.129 15.8574C107.441 10.2392 111.269 4.94178 115.564 0.0336914L122.829 4.24418C118.536 9.15353 114.708 14.4508 111.395 20.0678C110.039 23.5628 110.535 26.6519 112.33 27.7183Z" fill="#FFDE9B"/>
<path d="M122.835 4.20996C123.151 9.81943 122.753 15.4464 121.652 20.9558C120.682 23.5711 118.888 25.7998 116.54 27.3057C115.657 27.8639 114.625 28.1403 113.582 28.0973C110.754 27.8565 109.777 24.251 111.401 20.0681C114.713 14.4391 118.541 9.13021 122.835 4.20996Z" fill="#FEBC1F"/>
<path d="M330.244 114.968C329.365 131.532 324.584 147.654 316.29 162.019C307.996 176.384 296.424 188.586 282.518 197.63L112.234 295.943C98.6536 303.786 86.3728 304.357 77.6284 298.97L44.6051 279.803C35.9983 274.788 30.6662 264.172 30.6387 249.084C32.1171 221.413 44.3357 195.411 64.6942 176.612C63.248 172.494 62.5491 168.151 62.6303 163.788C63.308 150.782 67.0528 138.122 73.5586 126.84C80.0645 115.559 89.1467 105.976 100.064 98.8758C103.877 96.0953 108.365 94.3844 113.062 93.9199C117.758 93.4555 122.494 94.2544 126.778 96.2341L127.019 96.3714C135.543 63.5062 158.667 30.0702 185.883 14.3359C203.255 4.31193 218.969 3.38999 230.348 10.0016L263.269 29.1207C274.277 35.1888 281.397 48.2053 282.078 66.7741C285.331 67.1324 288.475 68.1609 291.311 69.7945L315.597 83.926C315.845 84.0636 316.058 84.1734 316.285 84.311C324.885 89.2921 330.217 99.9077 330.244 114.968Z" fill="#F3F1FC"/>
<path d="M330.227 114.996C329.334 131.555 324.544 147.669 316.248 162.027C307.951 176.385 296.381 188.581 282.481 197.624L112.203 295.937C98.6499 303.78 86.4036 304.399 77.6661 298.964C77.8093 299.102 77.9715 299.217 78.1478 299.308L44.6427 279.77C36.0429 274.816 30.6768 264.152 30.6768 249.085C32.1626 221.404 44.379 195.392 64.7323 176.571C63.2819 172.462 62.5601 168.131 62.5996 163.774C63.2903 150.76 67.0467 138.094 73.5627 126.807C80.0787 115.521 89.1696 105.934 100.095 98.8281C103.916 96.0711 108.4 94.3769 113.089 93.9176C117.778 93.4584 122.505 94.2504 126.789 96.2137L126.995 96.3515C135.526 63.4656 158.643 30.0294 185.887 14.3433C203.293 4.29863 218.979 3.40421 230.331 10.0089L263.836 29.4102C274.569 35.671 281.38 48.5363 281.999 66.768C285.273 67.115 288.437 68.1464 291.287 69.7952L316.261 84.3116C315.983 84.1334 315.682 83.9945 315.367 83.8989C324.448 88.5772 330.159 99.4476 330.227 114.996Z" fill="#57B3FE"/>
<path d="M291.307 69.7675L316.254 84.2634C307.544 79.1998 295.484 79.9086 282.185 87.5866C281.497 87.9719 280.864 88.3848 280.183 88.7976L255.236 74.3013C255.924 73.8885 256.557 73.4757 257.238 73.0836C270.537 65.44 282.598 64.7383 291.307 69.7675Z" fill="#497BFE"/>
<path d="M263.89 29.4723C252.539 22.8813 236.797 23.7828 219.426 33.7999C192.174 49.5411 169.058 83.0049 160.589 115.891L127.021 96.4139C135.518 63.5211 158.669 30.0573 185.886 14.323C203.258 4.29899 218.972 3.37705 230.351 9.98863L263.89 29.4723Z" fill="#5094FF"/>
<path d="M78.1578 299.296L44.6183 279.798C36.0184 274.803 30.6936 264.174 30.6523 249.086C32.1434 221.413 44.3623 195.41 64.7146 176.6L98.2541 196.091C77.9083 214.906 65.6908 240.906 64.1918 268.577C64.24 283.672 69.5648 294.301 78.1578 299.296Z" fill="#5094FF"/>
<path d="M126.758 96.2424L160.304 115.733C156.024 113.754 151.293 112.954 146.6 113.416C141.907 113.878 137.422 115.586 133.61 118.361C122.691 125.46 113.605 135.042 107.097 146.324C100.589 157.605 96.8421 170.267 96.1629 183.273C96.092 187.634 96.7906 191.972 98.2268 196.09L64.6873 176.6C63.2483 172.482 62.5497 168.143 62.6235 163.782C63.3047 150.776 67.0517 138.115 73.5585 126.833C80.0652 115.551 89.1474 105.967 100.064 98.8635C103.877 96.0888 108.361 94.3832 113.054 93.9224C117.747 93.4616 122.478 94.2624 126.758 96.2424Z" fill="#497BFE"/>
<path d="M219.431 33.8147C253.92 13.8631 282.038 29.9273 282.128 69.5898C282.112 76.0594 281.46 82.5121 280.18 88.8539C280.868 88.4411 281.501 88.0281 282.183 87.6428C308.601 72.3832 330.142 84.6569 330.232 115.004C329.351 131.57 324.567 147.692 316.27 162.058C307.974 176.423 296.4 188.624 282.492 197.666L112.222 295.973C85.7412 311.26 64.276 298.966 64.1865 268.598C65.6855 240.926 77.903 214.926 98.2488 196.111C96.8126 191.993 96.114 187.655 96.1849 183.294C96.8641 170.288 100.611 157.626 107.119 146.344C113.627 135.063 122.713 125.481 133.632 118.382C144.2 112.28 153.756 111.784 160.594 115.919C169.057 83.0057 192.173 49.5491 219.431 33.8147Z" fill="#57B3FE"/>
<path d="M176.368 192.031C170.175 192.197 164.302 194.812 160.035 199.303C155.769 203.794 153.458 209.795 153.609 215.987C153.761 209.795 151.45 203.794 147.183 199.303C142.917 194.812 137.043 192.197 130.851 192.031C137.043 191.865 142.917 189.251 147.183 184.76C151.45 180.269 153.761 174.268 153.609 168.075C153.458 174.268 155.769 180.269 160.035 184.76C164.302 189.251 170.175 191.865 176.368 192.031Z" fill="white"/>
</svg>
