<svg width="241" height="313" viewBox="0 0 241 313" fill="none" xmlns="http://www.w3.org/2000/svg">
<path d="M21.0442 177.471C30.8273 171.768 31.3663 197.807 46.3127 206.435C76.0472 223.61 84.3032 242.963 84.1877 277.091C84.1492 294.035 106.932 303.031 97.3033 308.652L110.859 300.759C120.527 295.134 126.499 283.195 126.576 266.247C126.653 232.123 102.62 190.488 72.886 173.308C57.9781 164.684 44.4219 163.898 34.6387 169.574L21.0442 177.471Z" fill="#ACACAC"/>
<path d="M59.3315 181.21C29.6269 164.061 5.43207 177.865 5.35079 212.01C5.26951 246.154 29.2761 287.726 58.9807 304.897C88.6853 322.068 112.88 308.285 112.987 274.153C113.094 240.021 89.0617 198.377 59.3315 181.21Z" fill="#ACACAC"/>
<path d="M19.3116 187.832C14.5433 195.056 12.1833 203.603 12.5698 212.25C12.4928 243.178 34.2922 280.886 61.2119 296.444C77.5828 305.919 92.1015 304.999 100.995 295.866C92.5208 307.416 76.847 309.427 59.0132 299.105C32.0934 283.543 10.2942 245.834 10.3712 214.906C9.7977 205.073 12.995 195.39 19.3116 187.832Z" fill="#ACACAC"/>
<path d="M12.5772 212.247C12.4916 243.179 34.2909 280.883 61.2107 296.441C77.5901 305.92 92.1046 304.996 100.994 295.863C105.906 288.624 108.352 279.993 107.966 271.253C108.039 240.287 86.2398 202.54 59.32 187.025C42.8379 177.469 28.1609 178.47 19.3017 187.829C14.5437 195.057 12.1903 203.602 12.5772 212.247Z" fill="#ACACAC"/>
<path d="M35.2452 210.47L34.7361 211.176L57.0873 239.875C57.318 239.692 57.6012 239.587 57.8958 239.576L35.2452 210.47Z" fill="#ACACAC"/>
<path d="M59.1754 239.943L58.5936 239.682C58.3663 239.606 58.1272 239.572 57.8877 239.58C57.5935 239.593 57.3108 239.697 57.0792 239.879C56.8587 240.085 56.6874 240.337 56.5778 240.618C56.4682 240.898 56.4232 241.2 56.4462 241.501C56.5014 242.437 56.7756 243.346 57.2466 244.157C57.7177 244.968 58.3725 245.657 59.1583 246.168C60.2534 246.805 61.2287 246.596 61.6651 245.77C61.8233 245.451 61.9053 245.1 61.9046 244.743V244.654C61.9035 244.454 61.8877 244.256 61.8575 244.059C61.7824 243.589 61.6473 243.13 61.4554 242.694C61.0709 241.789 60.4858 240.983 59.7443 240.337L59.1754 239.943Z" fill="#ACACAC"/>
<path d="M58.6425 210.189C57.3165 209.795 56.2855 210.543 56.2812 212.113C56.34 213.005 56.5778 213.876 56.9806 214.675C57.3833 215.473 57.9427 216.182 58.6254 216.759L58.5612 239.662L59.1773 239.944L59.7419 240.338L59.8189 240.389L59.883 217.482C61.1877 217.91 62.24 217.161 62.2443 215.557C62.1845 214.666 61.9462 213.796 61.5435 212.998C61.1408 212.201 60.5819 211.493 59.9001 210.915V207.164L58.6425 206.437V210.189ZM59.2457 215.831C58.7459 215.501 58.3306 215.057 58.0334 214.537C57.7362 214.017 57.5654 213.434 57.5346 212.836C57.5023 212.625 57.5346 212.409 57.6273 212.217C57.72 212.025 57.8688 211.865 58.054 211.759C58.2393 211.653 58.4522 211.606 58.6649 211.624C58.8776 211.641 59.0801 211.722 59.2457 211.857C59.7386 212.189 60.149 212.63 60.4455 213.145C60.7421 213.66 60.9169 214.237 60.9567 214.83C60.9567 215.933 60.1526 216.37 59.2115 215.827" fill="#ACACAC"/>
<path d="M68.4399 253.128L61.912 244.739C61.9087 245.097 61.8255 245.449 61.6683 245.77L67.9309 253.808L68.4399 253.128Z" fill="#ACACAC"/>
<path d="M68.059 241.283L61.3686 242.468L61.4669 242.695C61.6606 243.13 61.7945 243.589 61.8648 244.06L68.7434 242.887C69.448 244.235 70.4938 245.374 71.7763 246.19C72.4317 246.62 73.2185 246.803 73.9964 246.708C74.4578 246.598 74.8738 246.348 75.1865 245.991C75.4992 245.635 75.6932 245.19 75.7417 244.718C75.9096 243.697 75.8199 242.651 75.4808 241.673L78.7063 241.117L78.026 239.513L74.7921 240.069C74.0762 238.718 73.0167 237.581 71.7206 236.771C71.0714 236.341 70.2902 236.158 69.5177 236.253C67.8451 236.553 67.2419 238.768 68.059 241.283ZM69.3422 241.878C68.9586 241.044 68.8249 240.117 68.9572 239.209C69.0012 238.886 69.1377 238.583 69.3503 238.336C69.5629 238.089 69.8424 237.91 70.155 237.819C70.7037 237.782 71.2496 237.923 71.7122 238.221C72.7837 238.882 73.6214 239.861 74.1077 241.023C74.511 241.864 74.6597 242.805 74.5355 243.73C74.5002 244.059 74.3608 244.369 74.1377 244.613C73.9146 244.858 73.6194 245.025 73.2949 245.091C72.7579 245.157 72.2147 245.03 71.7635 244.731C70.6876 244.051 69.8491 243.054 69.3636 241.878" fill="#ACACAC"/>
<path d="M59.6604 290.203C59.8325 290.197 60.0015 290.156 60.1565 290.081C60.3115 290.006 60.449 289.899 60.5603 289.767C60.6715 289.636 60.7539 289.483 60.8023 289.318C60.8507 289.152 60.8639 288.979 60.8411 288.808C60.8105 288.239 60.6464 287.685 60.3617 287.192C60.077 286.698 59.6799 286.279 59.2027 285.968C58.9559 285.818 58.6743 285.735 58.3857 285.728C57.6885 285.728 57.2179 286.293 57.2179 287.131C57.2404 287.697 57.3992 288.25 57.6807 288.741C57.9622 289.233 58.3581 289.649 58.8348 289.955C59.0827 290.11 59.3679 290.196 59.6604 290.203Z" fill="#ACACAC"/>
<path d="M40.1878 272.895C40.3594 272.899 40.5295 272.862 40.6842 272.788C40.8388 272.713 40.9736 272.603 41.0776 272.467C41.2956 271.961 41.3595 271.402 41.2613 270.861C41.1632 270.319 40.9073 269.818 40.5258 269.421C40.3012 269.13 40.0241 268.883 39.7087 268.694C39.4505 268.537 39.1553 268.451 38.8533 268.446C38.6798 268.441 38.5078 268.478 38.3511 268.552C38.1943 268.626 38.0571 268.737 37.9507 268.874C37.735 269.38 37.6722 269.938 37.7703 270.479C37.8683 271.02 38.1229 271.521 38.5025 271.919C38.7287 272.207 39.0056 272.451 39.3196 272.638C39.5807 272.8 39.8806 272.889 40.1878 272.895Z" fill="#ACACAC"/>
<path d="M25.8659 248.178H25.9985C26.1641 248.169 26.3252 248.121 26.4681 248.037C26.611 247.953 26.7316 247.835 26.8198 247.695C26.973 247.389 27.0553 247.053 27.0605 246.712C27.0657 246.37 26.9937 246.033 26.8498 245.723C26.5746 245.004 26.075 244.393 25.4253 243.981C25.167 243.825 24.8718 243.739 24.5697 243.733H24.4799C24.3044 243.75 24.1354 243.808 23.9867 243.902C23.8379 243.996 23.7138 244.125 23.6244 244.277C23.4807 244.579 23.4061 244.909 23.4061 245.243C23.4061 245.578 23.4807 245.908 23.6244 246.21C23.8917 246.918 24.3829 247.519 25.0232 247.921C25.2743 248.085 25.5664 248.174 25.8659 248.178Z" fill="#ACACAC"/>
<path d="M20.7358 222.722C21.4331 222.722 21.9036 222.162 21.9078 221.319C21.8775 220.758 21.7152 220.213 21.4342 219.727C21.1532 219.241 20.7616 218.828 20.2909 218.522C20.0332 218.364 19.7376 218.278 19.4353 218.274C19.2654 218.278 19.0984 218.318 18.945 218.391C18.7915 218.464 18.655 218.569 18.5442 218.698C18.4334 218.827 18.3508 218.977 18.3016 219.14C18.2525 219.303 18.238 219.474 18.259 219.642C18.2898 220.211 18.4542 220.764 18.7388 221.258C19.0235 221.751 19.4204 222.171 19.8973 222.482C20.1507 222.635 20.4401 222.718 20.7358 222.722Z" fill="#ACACAC"/>
<path d="M79.339 295.461C79.5062 295.45 79.6686 295.399 79.8122 295.313C79.9559 295.226 80.0766 295.107 80.1646 294.964C80.3168 294.658 80.3978 294.321 80.4015 293.979C80.4052 293.636 80.3315 293.298 80.186 292.988C79.9132 292.267 79.4151 291.653 78.7658 291.238C78.5216 291.089 78.243 291.007 77.9573 290.999H77.8246C77.6569 291.011 77.4946 291.064 77.3515 291.152C77.2085 291.241 77.0891 291.363 77.0034 291.508C76.8538 291.814 76.776 292.149 76.776 292.49C76.776 292.83 76.8538 293.166 77.0034 293.471C77.2726 294.181 77.7671 294.781 78.4108 295.182C78.6682 295.342 78.9634 295.431 79.2663 295.439L79.339 295.461Z" fill="#ACACAC"/>
<path d="M40.3686 195.113H40.5012C40.6676 195.101 40.8287 195.05 40.9714 194.964C41.1142 194.877 41.2345 194.759 41.3225 194.617C41.4736 194.314 41.5548 193.981 41.5599 193.643C41.5651 193.304 41.4942 192.969 41.3524 192.662C41.0783 191.943 40.5786 191.332 39.928 190.921C39.6697 190.764 39.3745 190.679 39.0724 190.673H38.9783C38.8045 190.684 38.6359 190.736 38.4869 190.826C38.3379 190.917 38.213 191.041 38.1228 191.19C37.9781 191.493 37.903 191.824 37.903 192.159C37.903 192.494 37.9781 192.826 38.1228 193.128C38.3969 193.85 38.8964 194.463 39.5472 194.878C39.7951 195.028 40.0787 195.109 40.3686 195.113Z" fill="#ACACAC"/>
<path d="M98.8782 267.855C99.0503 267.85 99.2193 267.808 99.3743 267.733C99.5293 267.658 99.6668 267.551 99.778 267.42C99.8893 267.288 99.9717 267.135 100.02 266.97C100.068 266.805 100.082 266.631 100.059 266.461C100.027 265.896 99.8616 265.347 99.5769 264.859C99.2921 264.371 98.8959 263.956 98.4205 263.65C98.177 263.5 97.898 263.418 97.612 263.411C97.4417 263.416 97.2743 263.456 97.1205 263.529C96.9667 263.602 96.8299 263.707 96.7191 263.836C96.6082 263.965 96.5257 264.117 96.4769 264.28C96.4281 264.443 96.4141 264.615 96.4357 264.784C96.4634 265.349 96.6244 265.9 96.9054 266.392C97.1864 266.883 97.5794 267.301 98.0526 267.611C98.3012 267.765 98.5862 267.849 98.8782 267.855Z" fill="#ACACAC"/>
<path d="M93.8176 242.369C93.9895 242.365 94.1577 242.318 94.3071 242.233C94.4564 242.148 94.5822 242.027 94.6731 241.881C94.8274 241.577 94.91 241.241 94.9145 240.9C94.9189 240.559 94.8451 240.222 94.6988 239.913C94.4274 239.192 93.929 238.578 93.2786 238.164C93.0347 238.014 92.756 237.932 92.4701 237.924H92.3375C92.1699 237.936 92.0075 237.987 91.8639 238.074C91.7203 238.161 91.5996 238.281 91.5119 238.425C91.3622 238.723 91.2821 239.052 91.2776 239.387C91.2732 239.721 91.3445 240.052 91.4862 240.354C91.7561 241.083 92.2582 241.702 92.915 242.117C93.1643 242.272 93.451 242.358 93.7449 242.365L93.8176 242.369Z" fill="#ACACAC"/>
<path d="M79.4752 217.682C79.6512 217.687 79.8256 217.647 79.9825 217.568C80.1394 217.488 80.2738 217.37 80.3735 217.224C80.5881 216.724 80.6523 216.172 80.5581 215.635C80.4639 215.099 80.2154 214.602 79.8431 214.205C79.61 213.917 79.3293 213.671 79.0132 213.477C78.7544 213.322 78.4595 213.236 78.1576 213.229C77.9777 213.226 77.7999 213.268 77.6412 213.353C77.4824 213.438 77.3479 213.561 77.2507 213.713C77.0261 214.208 76.9574 214.759 77.0537 215.294C77.15 215.829 77.4067 216.321 77.7897 216.707C78.0185 216.999 78.2982 217.247 78.6153 217.439C78.8753 217.595 79.1721 217.679 79.4752 217.682Z" fill="#ACACAC"/>
<path d="M26.049 203.297C26.2207 203.302 26.391 203.265 26.5458 203.191C26.7005 203.116 26.8353 203.006 26.9388 202.869C27.1577 202.363 27.2221 201.804 27.124 201.261C27.0258 200.718 26.7694 200.216 26.387 199.819C26.1623 199.528 25.8852 199.282 25.5699 199.092C25.32 198.942 25.0358 198.858 24.7444 198.848C24.5676 198.845 24.3929 198.886 24.236 198.967C24.0791 199.049 23.9451 199.168 23.8461 199.315C23.6224 199.814 23.5537 200.368 23.6491 200.907C23.7444 201.445 23.9993 201.943 24.3808 202.334C24.609 202.62 24.8854 202.863 25.1978 203.053C25.4562 203.205 25.7492 203.289 26.049 203.297Z" fill="#ACACAC"/>
<path d="M93.6 287.277C93.7736 287.282 93.9457 287.246 94.1026 287.172C94.2595 287.097 94.3966 286.986 94.5026 286.849C94.7208 286.344 94.7851 285.787 94.6877 285.246C94.5903 284.705 94.3354 284.205 93.955 283.808C93.7272 283.522 93.4507 283.279 93.138 283.089C92.8794 282.933 92.5846 282.845 92.2824 282.836C92.1084 282.833 91.9364 282.874 91.7818 282.953C91.6272 283.033 91.4949 283.151 91.3969 283.294C91.1734 283.794 91.105 284.35 91.2003 284.889C91.2957 285.428 91.5503 285.926 91.9316 286.319C92.1563 286.61 92.4335 286.856 92.7487 287.046C93.0074 287.196 93.301 287.276 93.6 287.277Z" fill="#ACACAC"/>
<path d="M59.9369 200.388C60.1084 200.381 60.2766 200.339 60.4309 200.264C60.5853 200.19 60.7224 200.083 60.8334 199.952C60.9445 199.821 61.0272 199.669 61.0761 199.505C61.125 199.34 61.1391 199.167 61.1176 198.997C61.0886 198.431 60.9248 197.881 60.6398 197.391C60.3548 196.902 59.9569 196.487 59.4792 196.183C59.221 196.026 58.9259 195.94 58.6238 195.934C58.0506 195.934 57.473 196.362 57.4687 197.316C57.4937 197.882 57.6535 198.434 57.9348 198.926C58.216 199.417 58.6105 199.835 59.0856 200.144C59.3422 200.3 59.6364 200.385 59.9369 200.388Z" fill="#ACACAC"/>
<path d="M61.2441 144.931L61.4965 178.113C61.5627 178.786 61.8052 179.43 62.1994 179.98C62.5937 180.53 63.1258 180.966 63.7422 181.245C65.4262 182.103 67.2893 182.55 69.1792 182.55C71.0691 182.55 72.9323 182.103 74.6163 181.245C75.2409 180.966 75.7801 180.527 76.1786 179.971C76.577 179.415 76.8204 178.764 76.8835 178.083L76.6311 144.901C76.5679 145.581 76.3246 146.233 75.9261 146.789C75.5276 147.344 74.9884 147.784 74.3639 148.062C72.6799 148.92 70.8168 149.367 68.9269 149.367C67.037 149.367 65.1739 148.92 63.4899 148.062C62.8735 147.783 62.3414 147.347 61.9471 146.798C61.5528 146.248 61.3103 145.604 61.2441 144.931Z" fill="#ACACAC"/>
<path d="M63.5133 141.748C62.8537 141.97 62.2799 142.392 61.8722 142.956C61.4645 143.52 61.2433 144.197 61.2395 144.893C61.2358 145.589 61.4496 146.268 61.8512 146.837C62.2527 147.405 62.8218 147.833 63.4789 148.062C65.1629 148.92 67.0261 149.368 68.916 149.368C70.806 149.368 72.669 148.92 74.353 148.062C75.0106 147.843 75.5831 147.424 75.9899 146.863C76.3968 146.302 76.6176 145.628 76.6214 144.935C76.6252 144.242 76.4117 143.565 76.011 143C75.6102 142.434 75.0424 142.008 74.3872 141.782C72.7068 140.917 70.8447 140.462 68.9543 140.456C67.0639 140.45 65.1992 140.893 63.5133 141.748Z" fill="#ACACAC"/>
<path d="M9.90642 117.472C9.83506 118.168 9.95041 118.871 10.2406 119.508C10.5308 120.144 10.9854 120.693 11.5576 121.096L119.712 183.55C118.698 182.939 123.219 183.302 123.219 181.544C123.219 177.942 122.988 176.039 126.107 174.272C127.677 173.365 126.671 169.199 127.711 169.785L19.5313 107.33C18.8932 107.025 18.1843 106.898 17.4801 106.964C16.7758 107.029 16.1025 107.284 15.5317 107.702C13.8935 108.775 12.5307 110.219 11.5535 111.916C10.5763 113.613 10.0122 115.517 9.90642 117.472Z" fill="#ACACAC"/>
<path d="M123.695 170.165C126.814 168.369 129.338 169.828 129.351 173.408C129.248 175.36 128.686 177.26 127.71 178.954C126.734 180.647 125.372 182.086 123.734 183.153C120.603 184.962 118.074 183.503 118.066 179.923C118.168 177.968 118.731 176.064 119.709 174.368C120.688 172.673 122.054 171.232 123.695 170.165Z" fill="#ACACAC"/>
<path d="M146.742 164.378C146.452 170.734 144.642 176.927 141.462 182.438C138.283 187.949 133.827 192.616 128.47 196.048C125.677 197.768 122.482 198.724 119.204 198.821C117.032 198.839 114.893 198.281 113.007 197.202C110.744 195.714 108.923 193.643 107.737 191.207C106.551 188.772 106.044 186.062 106.267 183.362L106.243 175.101V175.056C106.279 174.727 106.4 174.412 106.595 174.144C106.789 173.876 107.05 173.663 107.352 173.526C108.188 173.101 109.112 172.879 110.05 172.879C110.988 172.879 111.912 173.101 112.748 173.526C113.046 173.661 113.305 173.868 113.502 174.13C113.698 174.392 113.824 174.7 113.869 175.024V175.153L113.893 183.342C113.729 184.699 113.91 186.075 114.42 187.342C114.93 188.61 115.753 189.728 116.812 190.592C118.11 191.08 119.511 191.23 120.883 191.029C122.255 190.828 123.553 190.282 124.657 189.442C128.841 186.672 132.325 182.968 134.834 178.622C137.343 174.276 138.809 169.407 139.116 164.398L139.059 143.058V143.022C139.096 142.693 139.217 142.379 139.411 142.112C139.606 141.844 139.867 141.632 140.168 141.495C141.003 141.07 141.927 140.849 142.864 140.849C143.801 140.849 144.725 141.07 145.56 141.495C145.865 141.632 146.129 141.845 146.327 142.115C146.524 142.385 146.648 142.701 146.685 143.034V143.082L146.742 164.378Z" fill="#ACACAC"/>
<path d="M146.702 143.009V143.066C146.659 143.398 146.531 143.713 146.332 143.983C146.133 144.253 145.869 144.468 145.565 144.608C144.724 145.029 143.797 145.249 142.857 145.249C141.917 145.249 140.99 145.029 140.149 144.608C139.851 144.466 139.594 144.25 139.405 143.979C139.215 143.709 139.099 143.394 139.068 143.066V143.009C139.102 142.682 139.22 142.368 139.409 142.099C139.598 141.83 139.853 141.614 140.149 141.471C140.99 141.049 141.917 140.83 142.857 140.83C143.797 140.83 144.724 141.049 145.565 141.471C145.86 141.623 146.115 141.841 146.312 142.108C146.51 142.374 146.643 142.683 146.702 143.009Z" fill="#ACACAC"/>
<path d="M139.46 42.7279L139.711 142.523V142.576C139.743 142.854 139.847 143.12 140.012 143.346C140.178 143.572 140.399 143.752 140.654 143.867C141.357 144.222 142.132 144.408 142.919 144.408C143.706 144.408 144.482 144.222 145.184 143.867C145.437 143.75 145.656 143.57 145.819 143.344C145.982 143.118 146.084 142.853 146.115 142.576V142.535L145.864 42.7279H139.46Z" fill="#ACACAC"/>
<path d="M146.436 18.6959H139.121C135.704 14.1585 131.143 10.6091 125.905 8.41029C137.534 6.45894 149.407 6.45894 161.036 8.41029L158.887 14.2879L146.436 18.6959Z" fill="#ACACAC"/>
<path d="M161.034 8.41048C157.858 9.1767 154.897 10.6489 152.369 12.7177C149.841 14.7865 147.812 17.3987 146.433 20.3598L149.384 21.0316L199.395 26.2737L195.546 21.1247C184.421 15.9211 172.876 11.6679 161.034 8.41048Z" fill="#ACACAC"/>
<path d="M240.65 67.8035C231.696 56.7934 223.669 47.9693 221.172 38.8171C203.491 18.4281 179.228 13.6394 149.954 20.7434L145.663 22.9049L179.605 36.1496L240.65 67.8035Z" fill="#ACACAC"/>
<path d="M221.172 97.5525C221.943 91.4392 224.098 85.5824 227.473 80.4275C230.848 75.2726 235.355 70.9555 240.65 67.8049C217.909 42.0404 187.571 27.9136 150.642 23.3354L145.663 22.9063L149.468 28.0998L221.172 97.5525Z" fill="#ACACAC"/>
<path d="M173.736 115.647C186.773 103.968 203.669 97.5232 221.172 97.5525C205.928 67.5984 181.35 43.0686 147.437 23.9628L142.377 28.1564L173.736 115.647Z" fill="#ACACAC"/>
<path d="M140.863 26.274L112.739 69.2863L112.172 115.646C132.149 108.996 153.743 108.996 173.719 115.646C168.67 84.7673 159.492 54.7074 146.433 26.274H140.863Z" fill="#ACACAC"/>
<path d="M46.3564 67.2047C55.3212 75.1461 61.6715 85.6157 64.5717 97.2357L96.5497 82.222L132.851 29.0294C134.316 28.753 135.73 28.2535 137.044 27.548C138.113 26.2648 136.498 26.2647 136.498 26.2647L134.976 23.4028C129.507 22.8442 107.718 25.9814 89.6117 28.2887L59.9572 51.0536L46.3564 67.2047Z" fill="#ACACAC"/>
<path d="M136.479 26.273C136.479 26.273 95.6199 42.5453 64.573 97.2358C80.6875 96.6003 96.5226 103.842 112.196 115.645C118.871 81.9308 127.614 51.0295 140.871 26.2648L136.479 26.273Z" fill="#ACACAC"/>
<path d="M89.5896 20.801C80.3026 24.7634 71.821 30.3955 64.5658 37.4176C60.1692 48.2789 54.0152 58.3427 46.3505 67.2057C71.1679 40.0649 100.778 25.6706 134.95 23.4038L137.597 20.801L116.192 15.6562C107.189 16.5778 98.2867 18.2995 89.5896 20.801Z" fill="#ACACAC"/>
<path d="M139.123 18.6915V22.8973L135.237 20.8005C120.371 16.1778 104.452 16.1778 89.5857 20.8005C101.322 15.6531 113.472 11.5071 125.907 8.40616C131.146 10.6035 135.707 14.1529 139.123 18.6915Z" fill="#ACACAC"/>
<path d="M149.047 19.016C152.767 21.1654 152.807 24.6384 149.111 26.7878C147.034 27.8456 144.736 28.3971 142.404 28.3971C140.073 28.3971 137.775 27.8456 135.697 26.7878C134.886 26.5155 134.181 25.997 133.679 25.3044C133.178 24.6118 132.905 23.7798 132.899 22.9247C132.894 22.0696 133.155 21.2342 133.647 20.5349C134.139 19.8356 134.837 19.3074 135.644 19.0241C137.72 17.9671 140.015 17.4154 142.345 17.414C144.674 17.4126 146.97 17.9614 149.047 19.016Z" fill="#ACACAC"/>
<path d="M113.871 175.153C113.83 175.476 113.707 175.784 113.514 176.046C113.32 176.308 113.062 176.516 112.765 176.65C111.93 177.076 111.005 177.297 110.068 177.297C109.13 177.297 108.205 177.076 107.37 176.65C107.065 176.514 106.8 176.3 106.603 176.03C106.406 175.761 106.282 175.444 106.244 175.112V175.056C106.28 174.726 106.402 174.412 106.596 174.143C106.79 173.875 107.052 173.662 107.353 173.526C108.189 173.1 109.114 172.879 110.051 172.879C110.989 172.879 111.913 173.1 112.749 173.526C113.048 173.66 113.307 173.868 113.503 174.13C113.699 174.392 113.825 174.699 113.871 175.023V175.153Z" fill="#ACACAC"/>
<path d="M191.406 81.4292C190.184 81.4602 188.979 81.7317 187.862 82.2282C186.745 82.7246 185.736 83.4362 184.893 84.3225C184.051 85.2089 183.392 86.2525 182.953 87.3937C182.514 88.535 182.304 89.7515 182.335 90.9739C182.366 89.7515 182.156 88.535 181.717 87.3937C181.278 86.2525 180.619 85.2089 179.776 84.3225C178.934 83.4362 177.925 82.7246 176.808 82.2282C175.69 81.7317 174.486 81.4602 173.264 81.4292C174.486 81.3982 175.691 81.1267 176.809 80.63C177.927 80.1332 178.935 79.4212 179.778 78.5344C180.62 77.6476 181.28 76.6034 181.718 75.4617C182.157 74.32 182.367 73.103 182.335 71.8803C182.303 73.103 182.513 74.32 182.951 75.4617C183.39 76.6034 184.05 77.6476 184.892 78.5344C185.734 79.4212 186.743 80.1332 187.861 80.63C188.979 81.1267 190.183 81.3982 191.406 81.4292Z" fill="#ACACAC"/>
<path d="M16.0444 171.471C25.8276 165.768 26.3665 191.807 41.3129 200.435C71.0474 217.61 79.3034 236.963 79.1879 271.091C79.1494 288.035 101.933 297.031 92.3035 302.652L105.86 294.759C115.527 289.134 121.499 277.195 121.576 260.247C121.653 226.123 97.6207 184.488 67.8862 167.308C52.9783 158.684 39.4221 157.898 29.6389 163.574L16.0444 171.471Z" fill="#5094FF"/>
<path d="M54.3313 175.21C24.6268 158.061 0.431938 171.865 0.350662 206.01C0.269386 240.154 24.276 281.726 53.9806 298.897C83.6851 316.068 107.88 302.285 107.987 268.153C108.094 234.021 84.0616 192.377 54.3313 175.21Z" fill="#57B3FE"/>
<path d="M14.3118 181.832C9.54345 189.056 7.18345 197.603 7.57001 206.25C7.493 237.178 29.2923 274.886 56.2121 290.444C72.583 299.919 87.1017 298.999 95.9951 289.866C87.5209 301.416 71.8472 303.427 54.0133 293.105C27.0936 277.543 5.29435 239.834 5.37135 208.906C4.79787 199.073 7.99516 189.39 14.3118 181.832Z" fill="#5094FF"/>
<path d="M7.57719 206.246C7.49163 237.179 29.2909 274.883 56.2107 290.441C72.5901 299.92 87.1046 298.996 95.9937 289.863C100.906 282.624 103.352 273.993 102.966 265.253C103.039 234.287 81.2398 196.54 54.32 181.025C37.8379 171.469 23.1609 172.469 14.3017 181.829C9.54374 189.057 7.19029 197.602 7.57719 206.246Z" fill="white"/>
<path d="M30.245 204.47L29.7359 205.176L52.087 233.875C52.3177 233.692 52.601 233.587 52.8955 233.576L30.245 204.47Z" fill="#E93565"/>
<path d="M54.1751 233.944L53.5933 233.682C53.366 233.606 53.1269 233.572 52.8874 233.58C52.5932 233.593 52.3105 233.697 52.0789 233.879C51.8584 234.085 51.6871 234.337 51.5775 234.618C51.4679 234.898 51.4229 235.2 51.4459 235.501C51.5011 236.437 51.7752 237.346 52.2463 238.157C52.7173 238.968 53.3722 239.657 54.158 240.168C55.2531 240.805 56.2284 240.596 56.6647 239.77C56.823 239.451 56.905 239.1 56.9043 238.743V238.654C56.9031 238.455 56.8873 238.256 56.8572 238.059C56.7821 237.589 56.647 237.13 56.4551 236.694C56.0706 235.789 55.4855 234.983 54.744 234.337L54.1751 233.944Z" fill="#1D2943"/>
<path d="M53.6424 204.188C52.3163 203.795 51.2853 204.543 51.2811 206.113C51.3398 207.005 51.5776 207.876 51.9804 208.675C52.3831 209.473 52.9426 210.182 53.6253 210.759L53.561 233.662L54.1771 233.944L54.7417 234.338L54.8187 234.389L54.8828 211.482C56.1875 211.91 57.2399 211.161 57.2441 209.557C57.1844 208.666 56.9461 207.796 56.5434 206.998C56.1407 206.201 55.5818 205.492 54.8999 204.915V201.164L53.6424 200.437V204.188ZM54.2455 209.831C53.7457 209.5 53.3305 209.057 53.0332 208.537C52.736 208.017 52.5652 207.434 52.5344 206.836C52.5021 206.625 52.5344 206.409 52.6271 206.217C52.7198 206.025 52.8687 205.865 53.0539 205.759C53.2391 205.653 53.452 205.606 53.6647 205.623C53.8774 205.641 54.0799 205.722 54.2455 205.857C54.7384 206.189 55.1488 206.63 55.4453 207.145C55.7419 207.66 55.9167 208.236 55.9566 208.83C55.9566 209.933 55.1524 210.37 54.2113 209.826" fill="#1D2943"/>
<path d="M63.4395 247.128L56.9116 238.739C56.9083 239.097 56.8251 239.449 56.6679 239.77L62.9305 247.808L63.4395 247.128Z" fill="#E93565"/>
<path d="M63.0587 235.283L56.3684 236.468L56.4667 236.695C56.6604 237.13 56.7943 237.589 56.8646 238.06L63.7432 236.887C64.4478 238.235 65.4935 239.374 66.776 240.19C67.4315 240.62 68.2182 240.803 68.9962 240.708C69.4576 240.598 69.8735 240.348 70.1863 239.991C70.499 239.635 70.693 239.19 70.7415 238.718C70.9094 237.697 70.8197 236.651 70.4805 235.673L73.7061 235.117L73.0258 233.513L69.7919 234.069C69.076 232.718 68.0165 231.581 66.7204 230.771C66.0711 230.341 65.29 230.158 64.5174 230.253C62.8448 230.553 62.2417 232.768 63.0587 235.283ZM64.342 235.878C63.9584 235.044 63.8246 234.117 63.957 233.209C64.001 232.886 64.1375 232.583 64.3501 232.336C64.5626 232.089 64.8421 231.91 65.1548 231.819C65.7035 231.782 66.2494 231.923 66.7119 232.221C67.7835 232.882 68.6211 233.862 69.1074 235.023C69.5107 235.864 69.6594 236.805 69.5352 237.73C69.4999 238.059 69.3605 238.369 69.1375 238.613C68.9144 238.858 68.6192 239.025 68.2947 239.091C67.7577 239.157 67.2145 239.03 66.7632 238.731C65.6874 238.051 64.8489 237.055 64.3634 235.878" fill="#1D2943"/>
<path d="M54.66 284.203C54.8321 284.197 55.0011 284.155 55.1561 284.08C55.3111 284.005 55.4487 283.899 55.5599 283.767C55.6711 283.636 55.7536 283.483 55.8019 283.318C55.8503 283.152 55.8635 282.979 55.8407 282.808C55.8102 282.239 55.646 281.685 55.3613 281.192C55.0767 280.698 54.6795 280.279 54.2023 279.968C53.9555 279.818 53.674 279.735 53.3854 279.728C52.6881 279.728 52.2175 280.293 52.2175 281.131C52.2401 281.697 52.3988 282.25 52.6803 282.741C52.9618 283.233 53.3577 283.649 53.8345 283.955C54.0823 284.11 54.3675 284.196 54.66 284.203Z" fill="#1D2943"/>
<path d="M35.1874 266.894C35.3589 266.898 35.529 266.862 35.6837 266.787C35.8384 266.713 35.9732 266.603 36.0772 266.467C36.2951 265.961 36.359 265.402 36.2608 264.861C36.1627 264.319 35.9068 263.818 35.5253 263.421C35.3008 263.13 35.0236 262.883 34.7083 262.694C34.45 262.537 34.1549 262.451 33.8528 262.445C33.6794 262.441 33.5074 262.478 33.3506 262.552C33.1938 262.626 33.0566 262.737 32.9502 262.874C32.7345 263.38 32.6717 263.937 32.7698 264.479C32.8679 265.02 33.1225 265.521 33.502 265.919C33.7282 266.206 34.0051 266.45 34.3191 266.638C34.5803 266.8 34.8801 266.888 35.1874 266.894Z" fill="#1D2943"/>
<path d="M20.8657 242.178H20.9983C21.1639 242.169 21.3249 242.121 21.4679 242.036C21.6108 241.952 21.7314 241.835 21.8196 241.694C21.9728 241.389 22.0551 241.053 22.0603 240.712C22.0655 240.37 21.9934 240.032 21.8496 239.723C21.5744 239.004 21.0748 238.393 20.4251 237.981C20.1668 237.824 19.8716 237.739 19.5695 237.733H19.4797C19.3042 237.749 19.1352 237.807 18.9864 237.902C18.8377 237.996 18.7136 238.125 18.6242 238.277C18.4805 238.579 18.4059 238.909 18.4059 239.243C18.4059 239.578 18.4805 239.908 18.6242 240.21C18.8915 240.917 19.3826 241.518 20.023 241.921C20.274 242.084 20.5662 242.174 20.8657 242.178Z" fill="#1D2943"/>
<path d="M15.7352 216.722C16.4325 216.722 16.9029 216.162 16.9072 215.319C16.8769 214.758 16.7146 214.213 16.4336 213.727C16.1526 213.241 15.7609 212.828 15.2903 212.521C15.0326 212.363 14.737 212.278 14.4347 212.273C14.2648 212.278 14.0978 212.318 13.9444 212.391C13.7909 212.464 13.6543 212.569 13.5436 212.697C13.4328 212.826 13.3501 212.977 13.301 213.14C13.2519 213.302 13.2374 213.473 13.2583 213.642C13.2892 214.211 13.4536 214.764 13.7382 215.258C14.0229 215.751 14.4197 216.171 14.8967 216.482C15.1501 216.635 15.4394 216.718 15.7352 216.722Z" fill="#1D2943"/>
<path d="M74.3387 289.46C74.506 289.45 74.6683 289.399 74.8119 289.313C74.9556 289.226 75.0764 289.107 75.1643 288.964C75.3165 288.658 75.3975 288.321 75.4012 287.978C75.4049 287.636 75.3313 287.298 75.1857 286.988C74.9129 286.267 74.4149 285.653 73.7655 285.238C73.5213 285.089 73.2427 285.007 72.957 284.999H72.8244C72.6566 285.011 72.4943 285.064 72.3513 285.152C72.2083 285.241 72.0889 285.363 72.0031 285.508C71.8535 285.814 71.7757 286.149 71.7757 286.49C71.7757 286.83 71.8535 287.166 72.0031 287.471C72.2723 288.18 72.7668 288.781 73.4105 289.182C73.668 289.342 73.9631 289.431 74.266 289.439L74.3387 289.46Z" fill="#464957"/>
<path d="M35.3679 189.113H35.5006C35.6669 189.101 35.8281 189.05 35.9708 188.964C36.1136 188.877 36.2338 188.759 36.3218 188.617C36.473 188.314 36.5541 187.981 36.5593 187.643C36.5645 187.304 36.4935 186.969 36.3517 186.662C36.0776 185.943 35.5779 185.332 34.9273 184.921C34.6691 184.764 34.3738 184.679 34.0718 184.673H33.9776C33.8038 184.684 33.6352 184.736 33.4863 184.826C33.3373 184.917 33.2124 185.041 33.1222 185.19C32.9775 185.493 32.9023 185.824 32.9023 186.159C32.9023 186.494 32.9775 186.826 33.1222 187.128C33.3963 187.849 33.8958 188.463 34.5465 188.877C34.7944 189.028 35.0781 189.109 35.3679 189.113Z" fill="#1D2943"/>
<path d="M93.8778 261.855C94.0499 261.85 94.2189 261.808 94.3739 261.733C94.5289 261.658 94.6664 261.551 94.7777 261.42C94.8889 261.288 94.9713 261.135 95.0197 260.97C95.0681 260.805 95.0813 260.631 95.0585 260.46C95.0264 259.896 94.8612 259.347 94.5765 258.859C94.2918 258.37 93.8955 257.956 93.4201 257.65C93.1766 257.5 92.8976 257.418 92.6116 257.411C92.4413 257.415 92.2739 257.456 92.1201 257.529C91.9664 257.602 91.8296 257.707 91.7187 257.836C91.6079 257.965 91.5254 258.117 91.4766 258.28C91.4277 258.443 91.4137 258.615 91.4353 258.784C91.4631 259.349 91.624 259.9 91.905 260.392C92.186 260.883 92.5791 261.301 93.0522 261.611C93.3009 261.765 93.5858 261.849 93.8778 261.855Z" fill="#1D2943"/>
<path d="M88.817 236.369C88.9889 236.365 89.1571 236.318 89.3064 236.233C89.4558 236.148 89.5816 236.027 89.6725 235.881C89.8268 235.577 89.9094 235.241 89.9139 234.9C89.9183 234.559 89.8445 234.221 89.6982 233.913C89.4268 233.192 88.9284 232.577 88.278 232.163C88.0341 232.014 87.7553 231.932 87.4695 231.924H87.3369C87.1693 231.936 87.0069 231.987 86.8633 232.074C86.7196 232.161 86.599 232.281 86.5113 232.425C86.3616 232.723 86.2814 233.052 86.277 233.386C86.2725 233.721 86.3438 234.051 86.4856 234.354C86.7555 235.082 87.2576 235.702 87.9144 236.116C88.1637 236.272 88.4504 236.358 88.7443 236.364L88.817 236.369Z" fill="#1D2943"/>
<path d="M74.4745 211.682C74.6505 211.687 74.8249 211.647 74.9818 211.568C75.1387 211.488 75.273 211.37 75.3728 211.224C75.5874 210.724 75.6516 210.172 75.5574 209.635C75.4632 209.099 75.2147 208.602 74.8424 208.205C74.6093 207.917 74.3286 207.671 74.0125 207.477C73.7537 207.322 73.4588 207.236 73.1569 207.229C72.977 207.226 72.7992 207.268 72.6404 207.353C72.4817 207.438 72.3472 207.561 72.25 207.713C72.0254 208.208 71.9567 208.759 72.053 209.294C72.1493 209.829 72.4059 210.321 72.789 210.707C73.0178 210.999 73.2975 211.247 73.6146 211.439C73.8745 211.595 74.1713 211.679 74.4745 211.682Z" fill="#1D2943"/>
<path d="M21.0484 197.297C21.22 197.302 21.3903 197.265 21.5451 197.191C21.6999 197.116 21.8347 197.006 21.9382 196.869C22.157 196.363 22.2215 195.803 22.1233 195.261C22.0251 194.718 21.7687 194.216 21.3863 193.819C21.1616 193.528 20.8845 193.282 20.5693 193.092C20.3193 192.942 20.0352 192.858 19.7437 192.848C19.567 192.845 19.3922 192.886 19.2353 192.967C19.0785 193.049 18.9444 193.168 18.8454 193.315C18.6217 193.814 18.5531 194.368 18.6484 194.907C18.7437 195.445 18.9987 195.943 19.3801 196.334C19.6083 196.62 19.8848 196.863 20.1971 197.053C20.4555 197.205 20.7485 197.289 21.0484 197.297Z" fill="#1D2943"/>
<path d="M88.5995 281.277C88.7731 281.282 88.9453 281.246 89.1021 281.172C89.259 281.097 89.3961 280.986 89.5021 280.849C89.7203 280.344 89.7846 279.787 89.6872 279.246C89.5898 278.705 89.3349 278.204 88.9545 277.808C88.7267 277.522 88.4502 277.279 88.1375 277.089C87.8789 276.932 87.5841 276.845 87.2819 276.836C87.1079 276.833 86.9359 276.873 86.7813 276.953C86.6267 277.033 86.4944 277.151 86.3964 277.294C86.173 277.794 86.1045 278.349 86.1998 278.889C86.2952 279.428 86.5498 279.926 86.9312 280.319C87.1558 280.61 87.433 280.856 87.7482 281.046C88.0069 281.196 88.3005 281.276 88.5995 281.277Z" fill="#1D2943"/>
<path d="M54.9365 194.388C55.108 194.381 55.2762 194.339 55.4305 194.264C55.5849 194.189 55.7219 194.083 55.833 193.952C55.944 193.821 56.0268 193.669 56.0757 193.504C56.1246 193.34 56.1387 193.167 56.1172 192.997C56.0882 192.431 55.9244 191.881 55.6394 191.391C55.3544 190.902 54.9565 190.487 54.4788 190.182C54.2206 190.026 53.9255 189.94 53.6234 189.934C53.0502 189.934 52.4726 190.362 52.4683 191.316C52.4933 191.882 52.6531 192.434 52.9344 192.925C53.2156 193.417 53.6101 193.835 54.0852 194.144C54.3418 194.3 54.636 194.385 54.9365 194.388Z" fill="#1D2943"/>
<path d="M56.2444 138.931L56.4967 172.113C56.563 172.786 56.8054 173.43 57.1997 173.98C57.594 174.53 58.1261 174.966 58.7425 175.245C60.4265 176.103 62.2896 176.55 64.1795 176.55C66.0694 176.55 67.9326 176.103 69.6166 175.245C70.2412 174.967 70.7804 174.527 71.1788 173.971C71.5773 173.415 71.8206 172.764 71.8838 172.083L71.6313 138.901C71.5681 139.581 71.3248 140.233 70.9264 140.789C70.5279 141.344 69.9887 141.784 69.3641 142.062C67.6801 142.92 65.8171 143.367 63.9271 143.367C62.0372 143.367 60.1741 142.92 58.4902 142.062C57.8737 141.783 57.3416 141.347 56.9474 140.798C56.5531 140.248 56.3106 139.604 56.2444 138.931Z" fill="#E3E7F0"/>
<path d="M58.5139 135.749C57.8543 135.97 57.2805 136.392 56.8728 136.956C56.4651 137.52 56.2439 138.197 56.2402 138.893C56.2364 139.589 56.4502 140.268 56.8518 140.837C57.2533 141.405 57.8224 141.833 58.4796 142.062C60.1635 142.92 62.0268 143.368 63.9167 143.368C65.8066 143.368 67.6697 142.92 69.3537 142.062C70.0112 141.843 70.5837 141.424 70.9906 140.863C71.3975 140.302 71.6182 139.628 71.622 138.935C71.6258 138.242 71.4123 137.565 71.0116 137C70.6108 136.434 70.043 136.008 69.3879 135.782C67.7074 134.917 65.8453 134.462 63.9549 134.456C62.0645 134.45 60.1998 134.893 58.5139 135.749Z" fill="#C9CEE2"/>
<path d="M4.90642 111.472C4.83506 112.168 4.95041 112.871 5.24062 113.508C5.53082 114.144 5.98535 114.693 6.55756 115.095L114.712 177.55C113.698 176.939 118.219 177.302 118.219 175.544C118.219 171.942 117.988 170.039 121.107 168.272C122.677 167.365 121.671 163.198 122.711 163.784L14.5313 101.33C13.8932 101.025 13.1843 100.898 12.48 100.964C11.7758 101.029 11.1025 101.284 10.5316 101.702C8.8935 102.775 7.5307 104.219 6.55352 105.916C5.57633 107.613 5.01215 109.516 4.90642 111.472Z" fill="#C9CEE2"/>
<path d="M118.695 164.165C121.814 162.369 124.338 163.828 124.351 167.408C124.248 169.36 123.686 171.26 122.71 172.954C121.734 174.647 120.372 176.086 118.734 177.153C115.603 178.962 113.074 177.503 113.066 173.923C113.168 171.968 113.731 170.064 114.709 168.368C115.688 166.673 117.054 165.232 118.695 164.165Z" fill="#9EA9C9"/>
<path d="M141.742 158.378C141.452 164.734 139.642 170.927 136.462 176.438C133.283 181.949 128.827 186.616 123.47 190.048C120.677 191.768 117.482 192.724 114.204 192.821C112.032 192.839 109.893 192.281 108.007 191.202C105.744 189.714 103.923 187.643 102.737 185.207C101.551 182.772 101.044 180.062 101.267 177.362L101.243 169.101V169.056C101.279 168.727 101.4 168.412 101.595 168.144C101.789 167.876 102.05 167.663 102.352 167.526C103.188 167.101 104.112 166.879 105.05 166.879C105.988 166.879 106.912 167.101 107.748 167.526C108.046 167.661 108.306 167.869 108.502 168.13C108.698 168.392 108.824 168.7 108.869 169.024V169.153L108.893 177.342C108.729 178.699 108.91 180.075 109.42 181.343C109.93 182.61 110.753 183.728 111.812 184.592C113.11 185.08 114.511 185.23 115.883 185.029C117.255 184.828 118.553 184.282 119.657 183.442C123.841 180.672 127.325 176.968 129.834 172.622C132.343 168.276 133.809 163.407 134.116 158.398L134.059 137.058V137.022C134.096 136.693 134.217 136.379 134.412 136.112C134.606 135.844 134.867 135.632 135.168 135.495C136.003 135.07 136.927 134.849 137.864 134.849C138.801 134.849 139.725 135.07 140.56 135.495C140.865 135.632 141.13 135.845 141.327 136.115C141.524 136.385 141.648 136.701 141.685 137.034V137.082L141.742 158.378Z" fill="#1D2943"/>
<path d="M141.703 137.009V137.065C141.659 137.398 141.531 137.713 141.332 137.983C141.134 138.253 140.87 138.468 140.565 138.608C139.725 139.029 138.797 139.249 137.857 139.249C136.917 139.249 135.99 139.029 135.149 138.608C134.851 138.466 134.594 138.25 134.405 137.979C134.216 137.709 134.1 137.394 134.068 137.065V137.009C134.103 136.682 134.22 136.368 134.409 136.099C134.598 135.83 134.853 135.614 135.149 135.471C135.99 135.049 136.917 134.83 137.857 134.83C138.797 134.83 139.725 135.049 140.565 135.471C140.86 135.623 141.115 135.841 141.313 136.108C141.51 136.374 141.643 136.683 141.703 137.009Z" fill="#4C5C75"/>
<path d="M134.46 36.7278L134.711 136.523V136.576C134.743 136.854 134.847 137.12 135.012 137.346C135.177 137.572 135.399 137.752 135.654 137.867C136.356 138.222 137.132 138.408 137.919 138.408C138.706 138.408 139.482 138.222 140.184 137.867C140.437 137.75 140.656 137.57 140.819 137.344C140.982 137.118 141.084 136.853 141.115 136.576V136.535L140.864 36.7278H134.46Z" fill="#C69C6C"/>
<path d="M141.436 12.6959H134.121C130.704 8.15849 126.143 4.60913 120.905 2.41029C132.534 0.458941 144.407 0.458941 156.037 2.41029L153.887 8.28786L141.436 12.6959Z" fill="#678AEE"/>
<path d="M156.034 2.4104C152.859 3.17661 149.897 4.64887 147.369 6.71766C144.841 8.78645 142.813 11.3986 141.434 14.3597L144.384 15.0315L194.396 20.2736L190.546 15.1246C179.421 9.92106 167.876 5.66784 156.034 2.4104Z" fill="#F3F1FC"/>
<path d="M235.65 61.8036C226.696 50.7935 218.669 41.9694 216.172 32.8172C198.491 12.4282 174.228 7.6395 144.954 14.7435L140.663 16.905L174.604 30.1497L235.65 61.8036Z" fill="#678AEE"/>
<path d="M216.172 91.5525C216.942 85.4392 219.097 79.5823 222.473 74.4274C225.848 69.2725 230.355 64.9555 235.65 61.8049C212.909 36.0403 182.57 21.9135 145.642 17.3354L140.663 16.9062L144.468 22.0997L216.172 91.5525Z" fill="#F3F1FC"/>
<path d="M168.736 109.647C181.773 97.9681 198.669 91.5234 216.172 91.5527C200.928 61.5986 176.35 37.0687 142.437 17.9629L137.377 22.1565L168.736 109.647Z" fill="#678AEE"/>
<path d="M135.863 20.2739L107.739 63.2862L107.172 109.646C127.149 102.995 148.742 102.995 168.719 109.646C163.67 78.7672 154.492 48.7073 141.433 20.2739H135.863Z" fill="#F3F1FC"/>
<path d="M41.3564 61.2047C50.3212 69.1462 56.6716 79.6158 59.5717 91.2357L91.5497 76.2221L127.851 23.0294C129.316 22.753 130.731 22.2535 132.044 21.548C133.113 20.2648 131.498 20.2648 131.498 20.2648L129.976 17.4028C124.507 16.8442 102.718 19.9814 84.6117 22.2887L54.9572 45.0536L41.3564 61.2047Z" fill="#F3F1FC"/>
<path d="M131.479 20.273C131.479 20.273 90.6202 36.5454 59.5732 91.2358C75.6877 90.6003 91.5229 97.8418 107.196 109.645C113.871 75.9308 122.614 45.0296 135.871 20.2649L131.479 20.273Z" fill="#678AEE"/>
<path d="M84.5897 14.801C75.3027 18.7634 66.8211 24.3955 59.5659 31.4176C55.1692 42.2789 49.0152 52.3428 41.3506 61.2057C66.1679 34.0649 95.7779 19.6706 129.95 17.4038L132.597 14.801L111.192 9.65625C102.189 10.5778 93.2868 12.2995 84.5897 14.801Z" fill="#678AEE"/>
<path d="M134.123 12.6916V16.8974L130.238 14.8005C115.371 10.1779 99.4521 10.1779 84.5859 14.8005C96.3223 9.65321 108.473 5.50716 120.907 2.40625C126.146 4.60358 130.707 8.15297 134.123 12.6916Z" fill="#F3F1FC"/>
<path d="M144.047 13.016C147.767 15.1654 147.807 18.6384 144.112 20.7878C142.034 21.8456 139.736 22.3972 137.404 22.3972C135.073 22.3972 132.775 21.8456 130.697 20.7878C129.886 20.5155 129.181 19.997 128.68 19.3044C128.178 18.6119 127.905 17.7799 127.9 16.9248C127.894 16.0697 128.155 15.2343 128.647 14.5349C129.139 13.8356 129.838 13.3074 130.644 13.0242C132.72 11.9671 135.016 11.4155 137.345 11.4141C139.674 11.4127 141.97 11.9615 144.047 13.016Z" fill="white"/>
<path d="M108.87 169.068V169.153C108.83 169.476 108.707 169.783 108.513 170.046C108.32 170.308 108.062 170.516 107.765 170.65C106.929 171.075 106.005 171.297 105.067 171.297C104.13 171.297 103.205 171.075 102.369 170.65C102.064 170.514 101.8 170.3 101.603 170.03C101.405 169.761 101.282 169.444 101.244 169.112V169.056C101.28 168.726 101.401 168.412 101.596 168.143C101.79 167.875 102.051 167.662 102.353 167.525C103.189 167.1 104.113 166.879 105.051 166.879C105.989 166.879 106.913 167.1 107.749 167.525C108.047 167.66 108.307 167.868 108.503 168.13C108.699 168.392 108.825 168.699 108.87 169.023V169.068Z" fill="#4C5C75"/>
<path d="M186.406 75.4293C185.184 75.4602 183.979 75.7318 182.862 76.2283C181.745 76.7247 180.736 77.4363 179.893 78.3226C179.051 79.2089 178.392 80.2526 177.953 81.3938C177.514 82.5351 177.304 83.7516 177.335 84.974C177.366 83.7516 177.156 82.5351 176.717 81.3938C176.278 80.2526 175.619 79.2089 174.776 78.3226C173.934 77.4363 172.925 76.7247 171.808 76.2283C170.69 75.7318 169.486 75.4602 168.264 75.4293C169.486 75.3983 170.691 75.1267 171.809 74.63C172.927 74.1333 173.935 73.4212 174.778 72.5345C175.62 71.6477 176.28 70.6035 176.718 69.4618C177.157 68.32 177.367 67.1031 177.335 65.8804C177.303 67.1031 177.513 68.32 177.951 69.4618C178.39 70.6035 179.05 71.6477 179.892 72.5345C180.734 73.4212 181.743 74.1333 182.861 74.63C183.979 75.1267 185.183 75.3983 186.406 75.4293Z" fill="#F8F9FE"/>
</svg>
