<svg width="25" height="24" viewBox="0 0 25 24" fill="none" xmlns="http://www.w3.org/2000/svg">
<path d="M16.4766 14.4716H15.6866L15.4066 14.2016C16.6066 12.8016 17.2266 10.8916 16.8866 8.86157C16.4166 6.08157 14.0966 3.86157 11.2966 3.52157C7.06658 3.00157 3.50658 6.56157 4.02658 10.7916C4.36658 13.5916 6.58658 15.9116 9.36658 16.3816C11.3966 16.7216 13.3066 16.1016 14.7066 14.9016L14.9766 15.1816V15.9716L19.2266 20.2216C19.6366 20.6316 20.3066 20.6316 20.7166 20.2216C21.1266 19.8116 21.1266 19.1416 20.7166 18.7316L16.4766 14.4716ZM10.4766 14.4716C7.98658 14.4716 5.97658 12.4616 5.97658 9.97157C5.97658 7.48157 7.98658 5.47157 10.4766 5.47157C12.9666 5.47157 14.9766 7.48157 14.9766 9.97157C14.9766 12.4616 12.9666 14.4716 10.4766 14.4716Z" fill="white"/>
</svg>
