<svg width="93" height="20" viewBox="0 0 93 20" fill="none" xmlns="http://www.w3.org/2000/svg">
<path d="M5.05034 7.19913L5.17202 6.59997C5.84217 3.3 8.79632 0.805084 12.392 0.805084C15.0751 0.805084 17.4096 2.21031 18.6973 4.29902C17.6466 4.39326 16.6607 4.7124 15.7881 5.20796C14.9565 4.23681 13.7221 3.66195 12.392 3.66195C10.2839 3.66195 8.45554 5.12453 8.0451 7.15384L7.52272 9.74991H4.92949C3.90339 9.74991 3.06385 10.5726 3.06385 11.5781C3.06385 12.5836 3.90339 13.4063 4.92949 13.4063H12.3809C12.6742 14.4787 13.2084 15.4516 13.9216 16.2632H4.78024C2.2028 16.2632 0.132141 14.211 0.132141 11.7244C0.132141 9.35065 2.02322 7.39558 4.44023 7.23872L5.05034 7.19913Z" fill="black" fill-opacity="0.6"/>
<path fill-rule="evenodd" clip-rule="evenodd" d="M19.3511 5.33591C15.9493 5.33591 13.1916 8.09364 13.1916 11.4955C13.1916 14.8973 15.9493 17.655 19.3511 17.655C20.4935 17.655 21.5631 17.3441 22.4802 16.8022L24.4218 18.7439C25.0232 19.3453 25.9982 19.3453 26.5996 18.7439C27.2009 18.1425 27.2009 17.1675 26.5996 16.5662L24.6579 14.6245C25.1998 13.7074 25.5107 12.6378 25.5107 11.4955C25.5107 8.09364 22.753 5.33591 19.3511 5.33591ZM19.3215 15.4636C21.5295 15.4636 23.3193 13.6738 23.3193 11.4659C23.3193 9.25793 21.5295 7.46806 19.3215 7.46806C17.1136 7.46806 15.3237 9.25793 15.3237 11.4659C15.3237 13.6738 17.1136 15.4636 19.3215 15.4636Z" fill="black" fill-opacity="0.6"/>
<path d="M19.3215 8.53415C19.708 8.92339 19.9245 9.44995 19.9236 9.9985C19.9226 10.5471 19.7043 11.0729 19.3164 11.4607C18.9285 11.8486 18.4027 12.067 17.8542 12.0679C17.3056 12.0689 16.779 11.8524 16.3898 11.4659C16.3898 12.0457 16.5618 12.6125 16.8839 13.0946C17.206 13.5768 17.6639 13.9525 18.1996 14.1744C18.7353 14.3963 19.3248 14.4544 19.8935 14.3412C20.4622 14.2281 20.9845 13.9489 21.3946 13.5389C21.8046 13.1289 22.0838 12.6065 22.1969 12.0378C22.31 11.4691 22.252 10.8796 22.0301 10.3439C21.8082 9.80824 21.4324 9.35037 20.9503 9.02823C20.4682 8.70609 19.9014 8.53415 19.3215 8.53415Z" fill="black" fill-opacity="0.6"/>
<path d="M34.894 13.7088C34.34 13.7088 33.845 13.646 33.4092 13.5204C32.9807 13.3949 32.6003 13.2139 32.2679 12.9775C31.9428 12.7411 31.651 12.4641 31.3925 12.1464L32.6778 10.6948C33.0472 11.175 33.4277 11.4963 33.8192 11.6589C34.2107 11.814 34.5912 11.8916 34.9605 11.8916C35.123 11.8916 35.2708 11.8768 35.4038 11.8472C35.5367 11.8103 35.6365 11.7549 35.7029 11.681C35.7768 11.5998 35.8138 11.5 35.8138 11.3818C35.8138 11.2784 35.7842 11.1898 35.7251 11.1159C35.666 11.042 35.5847 10.9792 35.4813 10.9275C35.3779 10.8684 35.2634 10.8167 35.1378 10.7724C35.0122 10.7281 34.8866 10.6948 34.7611 10.6726C34.6355 10.6431 34.5136 10.6135 34.3954 10.584C33.9595 10.488 33.5791 10.3661 33.2541 10.2183C32.929 10.0706 32.6557 9.89698 32.4341 9.69752C32.2198 9.49068 32.0573 9.25429 31.9465 8.98834C31.8431 8.7224 31.7914 8.42321 31.7914 8.09079C31.7914 7.72881 31.8763 7.39638 32.0462 7.0935C32.2161 6.79062 32.4415 6.53207 32.7222 6.31784C33.0029 6.09622 33.3242 5.93 33.6862 5.81919C34.0556 5.701 34.4397 5.6419 34.8386 5.6419C35.3853 5.6419 35.8507 5.6973 36.2348 5.80811C36.619 5.91153 36.9403 6.06297 37.1989 6.26243C37.4648 6.46189 37.6938 6.69459 37.8859 6.96053L36.5783 8.22376C36.4232 8.05385 36.2533 7.91349 36.0686 7.80268C35.8913 7.69187 35.7066 7.61061 35.5146 7.5589C35.3225 7.4998 35.1267 7.47025 34.9273 7.47025C34.7426 7.47025 34.5801 7.48872 34.4397 7.52566C34.3067 7.56259 34.2033 7.618 34.1294 7.69187C34.0556 7.75836 34.0186 7.8507 34.0186 7.9689C34.0186 8.07232 34.0593 8.16466 34.1405 8.24592C34.2218 8.31979 34.3252 8.38258 34.4508 8.4343C34.5764 8.48601 34.7094 8.53033 34.8497 8.56727C34.9975 8.59682 35.1304 8.62267 35.2486 8.64483C35.6549 8.72609 36.0243 8.83321 36.3567 8.96618C36.6965 9.09177 36.992 9.25429 37.2432 9.45374C37.4944 9.64581 37.6864 9.88221 37.8194 10.1629C37.9524 10.4436 38.0189 10.7724 38.0189 11.1491C38.0189 11.7032 37.8785 12.1723 37.5978 12.5564C37.3245 12.9332 36.9514 13.2213 36.4786 13.4207C36.0132 13.6128 35.485 13.7088 34.894 13.7088Z" fill="black" fill-opacity="0.6"/>
<path d="M40.2871 11.9137L39.3563 10.5397L42.0933 7.69187H44.7859L40.2871 11.9137ZM38.2703 13.598V5.39812H40.3425V13.598H38.2703ZM42.2927 13.598L40.276 10.8499L41.7276 9.78617L44.6751 13.598H42.2927Z" fill="black" fill-opacity="0.6"/>
<path d="M45.2552 16.1466L46.6735 12.8002L46.6957 13.7088L43.8922 7.69187H46.197L47.1832 10.041C47.2645 10.2257 47.3347 10.4104 47.3938 10.5951C47.4603 10.7724 47.5083 10.9423 47.5378 11.1048L47.3051 11.2821C47.3347 11.1861 47.379 11.0531 47.4381 10.8832C47.4972 10.7133 47.5637 10.5175 47.6376 10.2959L48.5351 7.69187H50.851L48.2913 13.598L47.2608 16.1466H45.2552Z" fill="black" fill-opacity="0.6"/>
<path d="M50.9363 13.598V5.84135H53.1303V13.598H50.9363ZM51.9779 10.7724V9.0105H55.9892V10.7724H51.9779ZM51.9779 7.7362V5.84135H56.4214V7.7362H51.9779Z" fill="black" fill-opacity="0.6"/>
<path d="M59.5168 13.7088C58.8889 13.7088 58.3275 13.5759 57.8325 13.3099C57.3376 13.044 56.9498 12.682 56.669 12.224C56.3883 11.766 56.248 11.2378 56.248 10.6394C56.248 10.041 56.3883 9.51284 56.669 9.05483C56.9498 8.59682 57.3376 8.23484 57.8325 7.9689C58.3275 7.70295 58.8889 7.56998 59.5168 7.56998C60.1448 7.56998 60.7025 7.70295 61.1901 7.9689C61.685 8.23484 62.0728 8.59682 62.3536 9.05483C62.6343 9.51284 62.7746 10.041 62.7746 10.6394C62.7746 11.2378 62.6343 11.766 62.3536 12.224C62.0728 12.682 61.685 13.044 61.1901 13.3099C60.7025 13.5759 60.1448 13.7088 59.5168 13.7088ZM59.5168 11.9691C59.7385 11.9691 59.9379 11.9137 60.1152 11.8029C60.2999 11.6847 60.4403 11.5259 60.5363 11.3264C60.6397 11.1196 60.6914 10.8906 60.6914 10.6394C60.6914 10.3735 60.6397 10.1408 60.5363 9.9413C60.4403 9.74185 60.2999 9.58671 60.1152 9.4759C59.9379 9.35771 59.7385 9.29861 59.5168 9.29861C59.2878 9.29861 59.0847 9.35771 58.9074 9.4759C58.7301 9.58671 58.5897 9.74554 58.4863 9.95238C58.3829 10.1518 58.3312 10.3808 58.3312 10.6394C58.3312 10.8906 58.3829 11.1196 58.4863 11.3264C58.5897 11.5259 58.7301 11.6847 58.9074 11.8029C59.0847 11.9137 59.2878 11.9691 59.5168 11.9691Z" fill="black" fill-opacity="0.6"/>
<path d="M63.0112 13.598V7.69187H64.9392L65.05 9.63104L64.6179 9.29861C64.7139 8.97357 64.8617 8.68177 65.0611 8.42321C65.268 8.15727 65.5154 7.95043 65.8035 7.80268C66.0917 7.64755 66.3945 7.56998 66.7122 7.56998C66.8452 7.56998 66.9707 7.58106 67.0889 7.60323C67.2071 7.618 67.3179 7.64016 67.4214 7.66971L66.8562 9.95238C66.775 9.90067 66.6605 9.85635 66.5127 9.81941C66.365 9.77509 66.2062 9.75293 66.0362 9.75293C65.8885 9.75293 65.7555 9.77878 65.6373 9.83049C65.5191 9.87482 65.4194 9.9413 65.3382 10.03C65.2569 10.1186 65.1941 10.2257 65.1498 10.3513C65.1054 10.4695 65.0833 10.6099 65.0833 10.7724V13.598H63.0112Z" fill="black" fill-opacity="0.6"/>
<path d="M70.0152 13.7088C69.3429 13.7088 68.763 13.5795 68.2755 13.321C67.7879 13.055 67.4112 12.6931 67.1452 12.2351C66.8793 11.7697 66.7463 11.2415 66.7463 10.6505C66.7463 10.2072 66.8202 9.79725 66.9679 9.4205C67.1157 9.04375 67.3225 8.71871 67.5885 8.44538C67.8544 8.16466 68.1684 7.95043 68.5303 7.80268C68.8997 7.64755 69.3023 7.56998 69.7382 7.56998C70.1666 7.56998 70.5544 7.64385 70.9016 7.7916C71.2562 7.93935 71.5591 8.14988 71.8103 8.42321C72.0688 8.69654 72.2646 9.01789 72.3976 9.38726C72.5379 9.75662 72.6007 10.1629 72.586 10.6062L72.5749 11.0716H67.9209L67.666 10.041H70.9238L70.7244 10.2627V10.0521C70.7244 9.88959 70.68 9.74923 70.5914 9.63104C70.5101 9.50545 70.3993 9.40942 70.259 9.34293C70.1186 9.27645 69.9598 9.24321 69.7825 9.24321C69.5313 9.24321 69.3208 9.29492 69.1509 9.39834C68.9883 9.49437 68.8628 9.63473 68.7741 9.81941C68.6855 10.0041 68.6411 10.2257 68.6411 10.4843C68.6411 10.7798 68.7002 11.0346 68.8184 11.2489C68.944 11.4631 69.125 11.6293 69.3614 11.7475C69.6052 11.8657 69.9007 11.9248 70.2479 11.9248C70.4769 11.9248 70.6763 11.8952 70.8462 11.8361C71.0235 11.777 71.2119 11.6736 71.4114 11.5259L72.3643 12.8667C72.1058 13.0735 71.8435 13.2397 71.5776 13.3653C71.319 13.4835 71.0605 13.5685 70.8019 13.6202C70.5434 13.6793 70.2811 13.7088 70.0152 13.7088Z" fill="black" fill-opacity="0.6"/>
<path d="M75.4109 13.7088C74.8273 13.7088 74.3028 13.5759 73.8374 13.3099C73.3794 13.044 73.0174 12.682 72.7515 12.224C72.4855 11.7586 72.3526 11.2304 72.3526 10.6394C72.3526 10.0484 72.4855 9.52392 72.7515 9.06591C73.0174 8.60051 73.3794 8.23484 73.8374 7.9689C74.3028 7.70295 74.8273 7.56998 75.4109 7.56998C75.9428 7.56998 76.4303 7.65494 76.8736 7.82484C77.3242 7.99475 77.6825 8.23853 77.9484 8.55619L76.8293 9.8859C76.748 9.78248 76.6446 9.69014 76.519 9.60888C76.3934 9.52023 76.2531 9.45374 76.0979 9.40942C75.9502 9.35771 75.784 9.33185 75.5993 9.33185C75.3555 9.33185 75.1413 9.38726 74.9566 9.49807C74.7719 9.60888 74.6278 9.76401 74.5244 9.96347C74.4284 10.1555 74.3804 10.3772 74.3804 10.6283C74.3804 10.8795 74.4284 11.1011 74.5244 11.2932C74.6205 11.4852 74.7608 11.6404 74.9455 11.7586C75.1376 11.8768 75.3555 11.9359 75.5993 11.9359C75.784 11.9359 75.9502 11.9137 76.0979 11.8694C76.2531 11.8251 76.3897 11.7623 76.5079 11.681C76.6335 11.5998 76.7406 11.5037 76.8293 11.3929L77.9484 12.7337C77.6751 13.044 77.3131 13.2841 76.8625 13.454C76.4193 13.6239 75.9354 13.7088 75.4109 13.7088Z" fill="black" fill-opacity="0.6"/>
<path d="M80.1181 13.6977C79.6306 13.6977 79.191 13.5685 78.7995 13.3099C78.4154 13.044 78.1088 12.682 77.8798 12.224C77.6582 11.7586 77.5474 11.2304 77.5474 10.6394C77.5474 10.0336 77.6582 9.50176 77.8798 9.04375C78.1014 8.58574 78.408 8.22745 78.7995 7.9689C79.191 7.70295 79.6417 7.56998 80.1514 7.56998C80.4247 7.56998 80.6759 7.60692 80.9049 7.68079C81.1339 7.75466 81.3334 7.86178 81.5033 8.00214C81.6732 8.1425 81.8209 8.30132 81.9465 8.47862C82.0721 8.65591 82.1755 8.84798 82.2568 9.05483L81.8357 9.03267V7.69187H83.8635V13.598H81.7914V12.1575L82.2457 12.1797C82.1792 12.3939 82.0795 12.5933 81.9465 12.778C81.8209 12.9627 81.6658 13.1252 81.4811 13.2656C81.2964 13.3986 81.0896 13.5057 80.8606 13.5869C80.6389 13.6608 80.3915 13.6977 80.1181 13.6977ZM80.7054 12.0024C80.9418 12.0024 81.145 11.9506 81.3149 11.8472C81.4848 11.7364 81.6141 11.5776 81.7027 11.3707C81.7987 11.1639 81.8468 10.9201 81.8468 10.6394C81.8468 10.3513 81.7987 10.1038 81.7027 9.89698C81.6141 9.69014 81.4848 9.535 81.3149 9.43158C81.145 9.32077 80.9418 9.26537 80.7054 9.26537C80.469 9.26537 80.2659 9.32077 80.096 9.43158C79.9335 9.535 79.8079 9.69014 79.7192 9.89698C79.6306 10.1038 79.5863 10.3513 79.5863 10.6394C79.5863 10.9201 79.6306 11.1639 79.7192 11.3707C79.8079 11.5776 79.9335 11.7364 80.096 11.8472C80.2659 11.9506 80.469 12.0024 80.7054 12.0024Z" fill="black" fill-opacity="0.6"/>
<path d="M86.544 13.7088C85.9308 13.7088 85.3915 13.6128 84.9261 13.4207C84.4607 13.2287 84.0988 12.9812 83.8402 12.6783L85.048 11.6367C85.2844 11.8509 85.5504 12.0097 85.8459 12.1132C86.1487 12.2166 86.4147 12.2683 86.6437 12.2683C86.725 12.2683 86.7988 12.2609 86.8653 12.2461C86.9318 12.2314 86.9835 12.2092 87.0204 12.1797C87.0648 12.1427 87.098 12.1058 87.1202 12.0688C87.1497 12.0245 87.1645 11.9765 87.1645 11.9248C87.1645 11.7992 87.1017 11.7032 86.9761 11.6367C86.9096 11.6071 86.7988 11.5702 86.6437 11.5259C86.4959 11.4742 86.2965 11.4188 86.0453 11.3597C85.7351 11.2784 85.458 11.1824 85.2142 11.0716C84.9705 10.9534 84.7636 10.8167 84.5937 10.6616C84.4312 10.5064 84.3019 10.3291 84.2059 10.1297C84.1172 9.92284 84.0729 9.69752 84.0729 9.45374C84.0729 9.15825 84.1394 8.896 84.2724 8.667C84.4053 8.43799 84.59 8.24223 84.8264 8.07971C85.0628 7.9098 85.3288 7.78421 85.6242 7.70295C85.9197 7.61431 86.2226 7.56998 86.5329 7.56998C86.8801 7.56998 87.2051 7.60692 87.508 7.68079C87.8183 7.74728 88.1064 7.84701 88.3723 7.97998C88.6456 8.10556 88.8894 8.26069 89.1037 8.44538L88.0399 9.61996C87.9143 9.50915 87.7666 9.40573 87.5967 9.30969C87.4341 9.21366 87.2642 9.13609 87.0869 9.07699C86.9096 9.0105 86.7434 8.97726 86.5883 8.97726C86.4922 8.97726 86.411 8.98465 86.3445 8.99942C86.278 9.0142 86.2226 9.03636 86.1783 9.06591C86.134 9.09546 86.1007 9.1324 86.0786 9.17672C86.0564 9.22104 86.0453 9.26906 86.0453 9.32077C86.0453 9.38726 86.0638 9.45005 86.1007 9.50915C86.1377 9.56825 86.1968 9.61626 86.278 9.6532C86.3445 9.69014 86.4553 9.73815 86.6104 9.79725C86.773 9.84896 87.0057 9.91545 87.3085 9.99671C87.6484 10.0927 87.9439 10.2036 88.195 10.3291C88.4462 10.4547 88.6493 10.5988 88.8045 10.7613C88.9153 10.8869 89.0002 11.0272 89.0593 11.1824C89.1184 11.3301 89.148 11.4963 89.148 11.681C89.148 12.0725 89.0335 12.4234 88.8045 12.7337C88.5829 13.0366 88.2763 13.2767 87.8848 13.454C87.4932 13.6239 87.0463 13.7088 86.544 13.7088Z" fill="black" fill-opacity="0.6"/>
<path d="M89.5907 13.598V6.19594H91.6518V13.598H89.5907ZM88.6156 9.44266V7.69187H92.6823V9.44266H88.6156Z" fill="black" fill-opacity="0.6"/>
</svg>
