<svg width="520" height="520" viewBox="0 0 520 520" fill="none" xmlns="http://www.w3.org/2000/svg">
<path opacity="0.25" fill-rule="evenodd" clip-rule="evenodd" d="M260 0C273.054 0 283.636 10.5824 283.636 23.6364V70.9091C283.636 83.9631 273.054 94.5455 260 94.5455C246.946 94.5455 236.364 83.9631 236.364 70.9091V23.6364C236.364 10.5824 246.946 0 260 0ZM76.1816 76.1773C85.4122 66.9467 100.378 66.9467 109.608 76.1773L142.936 109.505C152.166 118.735 152.166 133.701 142.936 142.931C133.705 152.162 118.739 152.162 109.509 142.931L76.1816 109.604C66.9511 100.374 66.9511 85.4079 76.1816 76.1773ZM443.826 76.1773C453.057 85.4079 453.057 100.374 443.826 109.604L410.499 142.931C401.268 152.162 386.303 152.162 377.072 142.931C367.842 133.701 367.841 118.735 377.072 109.505L410.399 76.1773C419.63 66.9467 434.596 66.9467 443.826 76.1773ZM260 189.091C220.838 189.091 189.091 220.838 189.091 260C189.091 299.162 220.838 330.909 260 330.909C299.162 330.909 330.909 299.162 330.909 260C330.909 220.838 299.162 189.091 260 189.091ZM141.818 260C141.818 194.73 194.73 141.818 260 141.818C325.27 141.818 378.182 194.73 378.182 260C378.182 325.27 325.27 378.182 260 378.182C194.73 378.182 141.818 325.27 141.818 260ZM0 260C0 246.946 10.5824 236.364 23.6364 236.364H70.9091C83.9631 236.364 94.5455 246.946 94.5455 260C94.5455 273.054 83.9631 283.636 70.9091 283.636H23.6364C10.5824 283.636 0 273.054 0 260ZM425.455 260C425.455 246.946 436.037 236.364 449.091 236.364H496.364C509.418 236.364 520 246.946 520 260C520 273.054 509.418 283.636 496.364 283.636H449.091C436.037 283.636 425.455 273.054 425.455 260ZM142.936 377.068C152.166 386.299 152.166 401.265 142.936 410.495L109.608 443.823C100.378 453.053 85.4122 453.053 76.1816 443.823C66.9511 434.592 66.9511 419.626 76.1816 410.396L109.509 377.068C118.739 367.838 133.705 367.838 142.936 377.068ZM377.072 377.068C386.303 367.838 401.268 367.838 410.499 377.068L443.826 410.396C453.057 419.626 453.057 434.592 443.826 443.823C434.596 453.053 419.63 453.053 410.399 443.823L377.072 410.495C367.842 401.265 367.842 386.299 377.072 377.068ZM260 425.455C273.054 425.455 283.636 436.037 283.636 449.091V496.364C283.636 509.418 273.054 520 260 520C246.946 520 236.364 509.418 236.364 496.364V449.091C236.364 436.037 246.946 425.455 260 425.455Z" fill="#FFA800"/>
</svg>
