<svg width="521" height="520" viewBox="0 0 521 520" fill="none" xmlns="http://www.w3.org/2000/svg">
<path opacity="0.25" fill-rule="evenodd" clip-rule="evenodd" d="M260.5 0C273.554 0 284.136 10.5824 284.136 23.6364V70.9091C284.136 83.9631 273.554 94.5455 260.5 94.5455C247.446 94.5455 236.864 83.9631 236.864 70.9091V23.6364C236.864 10.5824 247.446 0 260.5 0ZM76.6816 76.1773C85.9122 66.9467 100.878 66.9467 110.108 76.1773L143.436 109.505C152.666 118.735 152.666 133.701 143.436 142.931C134.205 152.162 119.239 152.162 110.009 142.931L76.6816 109.604C67.4511 100.374 67.4511 85.4079 76.6816 76.1773ZM444.326 76.1773C453.557 85.4079 453.557 100.374 444.326 109.604L410.999 142.931C401.768 152.162 386.803 152.162 377.572 142.931C368.342 133.701 368.341 118.735 377.572 109.505L410.899 76.1773C420.13 66.9467 435.096 66.9467 444.326 76.1773ZM260.5 189.091C221.338 189.091 189.591 220.838 189.591 260C189.591 299.162 221.338 330.909 260.5 330.909C299.662 330.909 331.409 299.162 331.409 260C331.409 220.838 299.662 189.091 260.5 189.091ZM142.318 260C142.318 194.73 195.23 141.818 260.5 141.818C325.77 141.818 378.682 194.73 378.682 260C378.682 325.27 325.77 378.182 260.5 378.182C195.23 378.182 142.318 325.27 142.318 260ZM0.5 260C0.5 246.946 11.0824 236.364 24.1364 236.364H71.4091C84.4631 236.364 95.0455 246.946 95.0455 260C95.0455 273.054 84.4631 283.636 71.4091 283.636H24.1364C11.0824 283.636 0.5 273.054 0.5 260ZM425.955 260C425.955 246.946 436.537 236.364 449.591 236.364H496.864C509.918 236.364 520.5 246.946 520.5 260C520.5 273.054 509.918 283.636 496.864 283.636H449.591C436.537 283.636 425.955 273.054 425.955 260ZM143.436 377.068C152.666 386.299 152.666 401.265 143.436 410.495L110.108 443.823C100.878 453.053 85.9122 453.053 76.6816 443.823C67.4511 434.592 67.4511 419.626 76.6816 410.396L110.009 377.068C119.239 367.838 134.205 367.838 143.436 377.068ZM377.572 377.068C386.803 367.838 401.768 367.838 410.999 377.068L444.326 410.396C453.557 419.626 453.557 434.592 444.326 443.823C435.096 453.053 420.13 453.053 410.899 443.823L377.572 410.495C368.342 401.265 368.342 386.299 377.572 377.068ZM260.5 425.455C273.554 425.455 284.136 436.037 284.136 449.091V496.364C284.136 509.418 273.554 520 260.5 520C247.446 520 236.864 509.418 236.864 496.364V449.091C236.864 436.037 247.446 425.455 260.5 425.455Z" fill="#FFA800"/>
</svg>
